<svg width="133" height="48" viewBox="0 0 133 48" fill="none" xmlns="http://www.w3.org/2000/svg">
<g clip-path="url(#clip0_42_3248)">
<path d="M14.635 6H0V41L14.635 6Z" fill="black"/>
<path d="M24.9321 6H39.548V41L24.9321 6Z" fill="black"/>
<path d="M19.7837 18.9004L29.0986 41.0006H22.9872L20.2032 33.9644H13.3862L19.7837 18.9004Z" fill="black"/>
<path d="M63.4236 28.2569L65.1493 33.2052C65.2065 33.3291 65.2923 33.3863 65.4448 33.3863H68.7627C68.9439 33.3863 68.9725 33.3005 68.9439 33.1194L62.0888 14.0796C62.0602 13.927 62.0316 13.8984 61.879 13.8984H57.7603C57.6459 13.8984 57.5791 13.9842 57.5791 14.1082C57.5219 15.1093 57.4361 15.4144 57.3122 15.7099L51.2007 33.0908C51.1721 33.3005 51.2389 33.3863 51.4105 33.3863H54.3756C54.5568 33.3863 54.6426 33.3291 54.7093 33.148L56.3397 28.2569H63.4236ZM57.2836 25.0248C58.1798 22.3171 59.362 18.8467 59.8387 16.8636H59.8673C60.4584 18.942 61.8504 23.0608 62.4797 25.0248H57.2836Z" fill="black"/>
<path d="M77.7567 33.6833C79.5396 33.6833 81.4369 33.3592 83.3628 32.5297C83.5154 32.4725 83.544 32.4057 83.544 32.2627C83.4867 31.7288 83.42 30.9565 83.42 30.3654V12.4411C83.42 12.3267 83.42 12.2695 83.277 12.2695H80.0449C79.921 12.2695 79.8638 12.3267 79.8638 12.4793V18.5526C79.3584 18.4954 79.0057 18.4668 78.5862 18.4668C73.371 18.4668 70.1675 21.9086 70.1675 26.2085C70.1675 31.1949 73.4568 33.6833 77.7567 33.6833V33.6833ZM79.8638 30.3654C79.3298 30.537 78.7387 30.6038 78.1381 30.6038C75.7736 30.6038 73.8381 29.269 73.8381 26.0274C73.8381 23.1576 75.8308 21.4605 78.4718 21.4605C79.0057 21.4605 79.4729 21.5177 79.8638 21.6702V30.3654Z" fill="black"/>
<path d="M93.8548 18.4668C89.4024 18.4668 86.647 21.88 86.647 26.0941C86.647 29.8602 88.8398 33.6834 93.7881 33.6834C97.9736 33.6834 100.91 30.6038 100.91 25.9988C100.91 21.9372 98.4217 18.4668 93.8548 18.4668ZM93.6737 21.4605C96.1907 21.4605 97.2585 23.6248 97.2585 26.0941C97.2585 29.1451 95.6854 30.661 93.8548 30.661C91.5952 30.661 90.2604 28.7637 90.2604 26.0274C90.2604 23.2148 91.681 21.4605 93.6737 21.4605V21.4605Z" fill="black"/>
<path d="M104.252 12.2695C104.128 12.2695 104.042 12.3267 104.042 12.4793V32.768C104.042 32.8538 104.128 33.0064 104.252 33.035C105.672 33.4736 107.16 33.6833 108.695 33.6833C113.09 33.6833 117.361 30.9565 117.361 25.4648C117.361 21.4891 114.634 18.4668 110.363 18.4668C109.381 18.4668 108.466 18.6193 107.665 18.8863L107.627 12.5079C107.627 12.2981 107.57 12.2695 107.36 12.2695H104.252ZM113.71 25.8271C113.71 29.1164 111.46 30.661 109.028 30.661C108.523 30.661 108.075 30.6324 107.665 30.5084V21.8514C108.132 21.6702 108.695 21.5177 109.734 21.5177C112.079 21.5177 113.71 23.005 113.71 25.8271Z" fill="black"/>
<path d="M129.423 26.895C130.872 26.895 132.064 26.8664 132.474 26.7711C132.627 26.7425 132.684 26.6853 132.713 26.5613C132.798 26.2372 132.836 25.5602 132.836 24.7308C132.836 21.9086 131.139 18.4668 126.754 18.4668C122.273 18.4668 119.784 22.1184 119.784 26.2372C119.784 29.8888 121.71 33.6834 127.106 33.6834C129.128 33.6834 130.434 33.3592 131.559 32.8253C131.673 32.7681 131.73 32.6727 131.73 32.5011V30.0318C131.73 29.8888 131.645 29.8602 131.559 29.9174C130.434 30.3941 129.213 30.6324 127.879 30.6324C124.856 30.6324 123.483 28.9639 123.398 26.895H129.423ZM123.398 24.3399C123.636 22.8907 124.551 21.3175 126.601 21.3175C128.861 21.3175 129.452 23.2148 129.452 24.0729C129.452 24.1015 129.452 24.2254 129.452 24.3113C129.328 24.3399 128.947 24.3399 127.821 24.3399H123.398Z" fill="black"/>
</g>
<defs>
<clipPath id="clip0_42_3248">
<rect width="133" height="48" fill="white"/>
</clipPath>
</defs>
</svg>
