<svg width="52" height="53" viewBox="0 0 52 53" fill="none" xmlns="http://www.w3.org/2000/svg">
<rect width="51.8772" height="52.484" rx="25.9386" fill="white"/>
<path d="M31.8482 31.0631C30.8168 31.9784 29.5288 33.1173 27.1934 33.1173H25.7969C24.107 33.1173 22.5699 32.503 21.4696 31.3896C20.3949 30.3017 19.8033 28.8127 19.8033 27.1963V25.2855C19.8033 23.6692 20.3949 22.1802 21.4696 21.0922C22.5699 19.9788 24.107 19.3655 25.7969 19.3655H27.1934C29.5317 19.3655 30.8168 20.5035 31.8482 21.4187C32.9191 22.3623 33.8429 23.187 36.3066 23.187C36.6824 23.1869 37.0575 23.1569 37.4285 23.0974L37.42 23.0757C37.2725 22.7092 37.0994 22.3535 36.902 22.0113L35.2554 19.1588C34.5129 17.8729 33.445 16.8052 32.159 16.0628C30.8731 15.3204 29.4143 14.9296 27.9294 14.9297H24.6354C23.1505 14.9296 21.6918 15.3204 20.4058 16.0628C19.1198 16.8052 18.0519 17.8729 17.3094 19.1588L15.6628 22.0113C14.9205 23.2973 14.5298 24.7561 14.5298 26.2409C14.5298 27.7258 14.9205 29.1845 15.6628 30.4706L17.3094 33.323C18.0519 34.6089 19.1198 35.6767 20.4058 36.4191C21.6918 37.1614 23.1505 37.5522 24.6354 37.5522H27.9294C29.4143 37.5522 30.8731 37.1614 32.159 36.4191C33.445 35.6767 34.5129 34.6089 35.2554 33.323L36.902 30.4753C37.0994 30.133 37.2725 29.7774 37.42 29.4109L37.4285 29.3901C37.0577 29.3285 36.6825 29.297 36.3066 29.2958C33.8429 29.2958 32.9191 30.1158 31.8482 31.0641" fill="#006BFF"/>
<path d="M27.1929 21.0977H25.7964C23.2241 21.0977 21.5342 22.9348 21.5342 25.2862V27.197C21.5342 29.5484 23.2241 31.3856 25.7964 31.3856H27.1929C30.9408 31.3856 30.6464 27.5641 36.306 27.5641C36.8422 27.5635 37.3774 27.6127 37.9045 27.7113C38.0762 26.739 38.0762 25.7442 37.9045 24.772C37.3773 24.87 36.8422 24.9193 36.306 24.9192C30.6445 24.9192 30.9408 21.0977 27.1929 21.0977" fill="#006BFF"/>
<path d="M41.1562 29.1081C40.1924 28.4022 39.0809 27.9244 37.9056 27.7107C37.9056 27.7211 37.9056 27.7296 37.9056 27.739C37.8044 28.3024 37.6463 28.8541 37.4338 29.3856C38.4047 29.5359 39.3259 29.9153 40.1211 30.4924C40.1211 30.4999 40.1164 30.5094 40.1136 30.5179C39.0901 33.8319 36.9118 36.6689 33.9745 38.5135C31.0372 40.3581 27.5356 41.088 24.106 40.5704C20.6763 40.0529 17.546 38.3224 15.2838 35.6931C13.0216 33.0639 11.7775 29.7105 11.7775 26.242C11.7775 22.7735 13.0216 19.4201 15.2838 16.7908C17.546 14.1616 20.6763 12.4311 24.106 11.9135C27.5356 11.396 31.0372 12.1258 33.9745 13.9705C36.9118 15.8151 39.0901 18.6521 40.1136 21.9661C40.1136 21.9746 40.1183 21.9841 40.1211 21.9916C39.326 22.5687 38.4048 22.9479 37.4338 23.0975C37.6461 23.6297 37.8041 24.182 37.9056 24.7459C37.905 24.7547 37.905 24.7636 37.9056 24.7724C39.0809 24.559 40.1924 24.0815 41.1562 23.3758C42.0828 22.6899 41.9035 21.9152 41.7629 21.4566C40.6173 17.7409 38.1767 14.5594 34.8845 12.4904C31.5924 10.4213 27.6672 9.60201 23.8223 10.1813C19.9773 10.7606 16.4678 12.7 13.9314 15.6472C11.3949 18.5943 10 22.3537 10 26.242C10 30.1303 11.3949 33.8896 13.9314 36.8368C16.4678 39.784 19.9773 41.7234 23.8223 42.3027C27.6672 42.882 31.5924 42.0627 34.8845 39.9936C38.1767 37.9246 40.6173 34.7431 41.7629 31.0274C41.9035 30.5688 42.0828 29.7941 41.1562 29.1081Z" fill="#006BFF"/>
<path d="M37.429 23.0973C37.0581 23.1589 36.6829 23.1904 36.307 23.1916C33.8433 23.1916 32.9196 22.3716 31.8495 21.4233C30.8173 20.508 29.5321 19.3691 27.1939 19.3691H25.7974C24.1065 19.3691 22.5703 19.9834 21.4701 21.0968C20.3953 22.1848 19.8037 23.6738 19.8037 25.2901V27.2009C19.8037 28.8173 20.3953 30.3062 21.4701 31.3942C22.5703 32.5076 24.1065 33.121 25.7974 33.121H27.1939C29.5321 33.121 30.8173 31.983 31.8495 31.0677C32.9196 30.1241 33.8433 29.2994 36.307 29.2994C36.6828 29.2995 37.058 29.3295 37.429 29.3891C37.6419 28.8577 37.8 28.306 37.9008 27.7425C37.9013 27.7331 37.9013 27.7236 37.9008 27.7142C37.3736 27.6165 36.8385 27.5675 36.3023 27.568C30.6408 27.568 30.9371 31.3904 27.1892 31.3904H25.7927C23.2204 31.3904 21.5305 29.5523 21.5305 27.2009V25.2864C21.5305 22.935 23.2204 21.0978 25.7927 21.0978H27.1892C30.9371 21.0978 30.6427 24.9184 36.3023 24.9184C36.8385 24.9193 37.3736 24.8703 37.9008 24.7721C37.9008 24.7636 37.9008 24.7551 37.9008 24.7457C37.7993 24.1817 37.6413 23.6295 37.429 23.0973Z" fill="#0AE8F0"/>
<path d="M37.429 23.0973C37.0581 23.1589 36.6829 23.1904 36.307 23.1916C33.8433 23.1916 32.9196 22.3716 31.8495 21.4233C30.8173 20.508 29.5321 19.3691 27.1939 19.3691H25.7974C24.1065 19.3691 22.5703 19.9834 21.4701 21.0968C20.3953 22.1848 19.8037 23.6738 19.8037 25.2901V27.2009C19.8037 28.8173 20.3953 30.3062 21.4701 31.3942C22.5703 32.5076 24.1065 33.121 25.7974 33.121H27.1939C29.5321 33.121 30.8173 31.983 31.8495 31.0677C32.9196 30.1241 33.8433 29.2994 36.307 29.2994C36.6828 29.2995 37.058 29.3295 37.429 29.3891C37.6419 28.8577 37.8 28.306 37.9008 27.7425C37.9013 27.7331 37.9013 27.7236 37.9008 27.7142C37.3736 27.6165 36.8385 27.5675 36.3023 27.568C30.6408 27.568 30.9371 31.3904 27.1892 31.3904H25.7927C23.2204 31.3904 21.5305 29.5523 21.5305 27.2009V25.2864C21.5305 22.935 23.2204 21.0978 25.7927 21.0978H27.1892C30.9371 21.0978 30.6427 24.9184 36.3023 24.9184C36.8385 24.9193 37.3736 24.8703 37.9008 24.7721C37.9008 24.7636 37.9008 24.7551 37.9008 24.7457C37.7993 24.1817 37.6413 23.6295 37.429 23.0973Z" fill="#0AE8F0"/>
</svg>
