<svg width="16" height="16" viewBox="0 0 16 16" fill="none" xmlns="http://www.w3.org/2000/svg">
<g clip-path="url(#clip0_345_1729)">
<path d="M10.2524 2C10.096 2.27466 9.95561 2.5588 9.82798 2.84925C8.61545 2.6693 7.38058 2.6693 6.16486 2.84925C6.04042 2.5588 5.89682 2.27466 5.74048 2C4.60133 2.19259 3.49091 2.53039 2.43793 3.0071C0.351096 6.0663 -0.213688 9.04656 0.067112 11.9858C1.28921 12.8792 2.6581 13.5612 4.11632 13.9968C4.44498 13.5612 4.73535 13.0971 4.98424 12.614C4.51199 12.4404 4.05569 12.2226 3.61855 11.97C3.73341 11.8879 3.8451 11.8027 3.95358 11.7206C6.51585 12.914 9.48337 12.914 12.0488 11.7206C12.1573 11.809 12.269 11.8942 12.3839 11.97C11.9467 12.2257 11.4904 12.4404 11.015 12.6172C11.2639 13.1002 11.5542 13.5643 11.8829 14C13.3411 13.5643 14.71 12.8855 15.9322 11.9921C16.2639 8.58247 15.3641 5.62746 13.5548 3.01026C12.5051 2.53355 11.3947 2.19574 10.2555 2.00631L10.2524 2ZM5.34161 10.1768C4.55348 10.1768 3.89935 9.46961 3.89935 8.59511C3.89935 7.72061 4.52794 7.01026 5.33843 7.01026C6.14892 7.01026 6.79346 7.72376 6.7807 8.59511C6.76794 9.46646 6.14572 10.1768 5.34161 10.1768ZM10.6576 10.1768C9.86626 10.1768 9.21852 9.46961 9.21852 8.59511C9.21852 7.72061 9.84712 7.01026 10.6576 7.01026C11.4681 7.01026 12.1094 7.72376 12.0967 8.59511C12.0839 9.46646 11.4617 10.1768 10.6576 10.1768Z" fill="white"/>
</g>
<defs>
<clipPath id="clip0_345_1729">
<rect width="16" height="12" fill="white" transform="translate(0 2)"/>
</clipPath>
</defs>
</svg>
