<svg width="73" height="21" viewBox="0 0 73 21" fill="none" xmlns="http://www.w3.org/2000/svg">
<g clip-path="url(#clip0_347_2397)">
<path d="M4.0678 8.56132L22.79 13.4457C23.5032 13.6318 24 14.2666 24 14.9922V18.5H19.9322V16.8383L12.0004 14.7692L4.0678 16.8383V18.5H0V14.9922C1.84676e-06 14.2666 0.496751 13.6318 1.21001 13.4457L4.0682 12.6996L1.21001 11.9543C0.496743 11.7682 1.23078e-05 11.1334 0 10.4078V8.1C0 7.21636 0.728485 6.5 1.62712 6.5H4.0678V8.56132Z" fill="black"/>
<path d="M22.3728 6.5C23.2714 6.5 23.9999 7.21636 23.9999 8.1V10.5H19.9321V6.5H22.3728Z" fill="black"/>
<path d="M18.3052 2.5C19.2038 2.5 19.9323 3.21634 19.9323 4.1V6.5H4.06787V4.1C4.06787 3.21634 4.79637 2.5 5.69499 2.5H18.3052Z" fill="black"/>
</g>
<path d="M35.0124 18H32.5298L38.1081 2.49883H40.8102L46.3885 18H43.9059L39.5235 5.31448H39.4024L35.0124 18ZM35.4287 11.9297H43.4821V13.8976H35.4287V11.9297ZM49.166 6.37413L51.7318 10.9003L54.3204 6.37413H56.7954L53.1699 12.1871L56.8257 18H54.3507L51.7318 13.6554L49.1205 18H46.6379L50.2559 12.1871L46.6833 6.37413H49.166ZM58.0534 18V6.37413H60.3165V18H58.0534ZM59.1963 4.58029C58.8027 4.58029 58.4646 4.44909 58.1821 4.1867C57.9045 3.91927 57.7658 3.60137 57.7658 3.23302C57.7658 2.85962 57.9045 2.54172 58.1821 2.27934C58.4646 2.0119 58.8027 1.87818 59.1963 1.87818C59.5899 1.87818 59.9254 2.0119 60.203 2.27934C60.4855 2.54172 60.6268 2.85962 60.6268 3.23302C60.6268 3.60137 60.4855 3.91927 60.203 4.1867C59.9254 4.44909 59.5899 4.58029 59.1963 4.58029ZM71.0072 9.21247L68.956 9.57578C68.8703 9.31339 68.734 9.06362 68.5473 8.82646C68.3657 8.5893 68.1184 8.39503 67.8056 8.24365C67.4927 8.09227 67.1017 8.01658 66.6324 8.01658C65.9916 8.01658 65.4567 8.16039 65.0278 8.44801C64.5989 8.73059 64.3844 9.09642 64.3844 9.54551C64.3844 9.93405 64.5282 10.2469 64.8158 10.4841C65.1035 10.7212 65.5677 10.9155 66.2085 11.0669L68.0553 11.4907C69.1251 11.738 69.9224 12.1189 70.4471 12.6336C70.9719 13.1483 71.2343 13.8169 71.2343 14.6394C71.2343 15.3357 71.0325 15.9564 70.6288 16.5014C70.2302 17.0413 69.6726 17.4651 68.956 17.7729C68.2446 18.0807 67.4196 18.2346 66.481 18.2346C65.1792 18.2346 64.117 17.9571 63.2945 17.4021C62.472 16.842 61.9674 16.0472 61.7807 15.0178L63.9681 14.6848C64.1044 15.255 64.3844 15.6864 64.8083 15.9791C65.2321 16.2667 65.7847 16.4105 66.4659 16.4105C67.2076 16.4105 67.8005 16.2566 68.2446 15.9488C68.6886 15.636 68.9106 15.255 68.9106 14.8059C68.9106 14.4426 68.7744 14.1373 68.5019 13.8901C68.2345 13.6428 67.8232 13.4561 67.2682 13.33L65.3003 12.8985C64.2154 12.6513 63.4131 12.2577 62.8933 11.7178C62.3787 11.1779 62.1213 10.4941 62.1213 9.66661C62.1213 8.98036 62.3131 8.37989 62.6965 7.8652C63.08 7.35052 63.6099 6.94936 64.286 6.66174C64.9622 6.36908 65.7367 6.22275 66.6097 6.22275C67.8661 6.22275 68.8551 6.49523 69.5767 7.04019C70.2983 7.58011 70.7751 8.3042 71.0072 9.21247Z" fill="black"/>
<defs>
<clipPath id="clip0_347_2397">
<rect width="24" height="16" fill="white" transform="translate(0 2.5)"/>
</clipPath>
</defs>
</svg>
