<svg width="100" height="22" viewBox="0 0 100 22" fill="none" xmlns="http://www.w3.org/2000/svg">
<g clip-path="url(#clip0_42_3393)">
<path fill-rule="evenodd" clip-rule="evenodd" d="M31.7402 1.46513C31.7402 0.719607 32.3524 0.115234 33.1076 0.115234H35.4896C36.0271 0.115234 36.548 0.299122 36.9636 0.635594L37.6882 1.22223L37.7064 1.23855C37.7231 1.23298 37.7398 1.22754 37.7566 1.22223C39.0639 0.808852 40.65 0.730237 42.2689 0.730237C43.8878 0.730237 45.4739 0.808852 46.7812 1.22223C46.798 1.22754 46.8147 1.23298 46.8314 1.23855L46.8495 1.22223L47.5742 0.635594C47.9897 0.299122 48.5107 0.115234 49.0481 0.115234H51.4302C52.1854 0.115234 52.7975 0.719607 52.7975 1.46513V2.29962C52.7975 2.94527 52.5221 3.56105 52.0386 3.9959L51.4541 4.52174C51.1687 4.77846 50.8261 4.96529 50.4541 5.06714L50.3158 5.105C50.8575 6.38096 51.1567 7.74486 51.1567 8.84818C51.1567 13.2865 48.3751 15.2033 45.9241 16.8923C43.9939 18.2224 42.2689 19.4111 42.2689 21.5787C42.2689 19.4111 40.5438 18.2224 38.6137 16.8923C36.1627 15.2033 33.381 13.2865 33.381 8.84818C33.381 7.74486 33.6803 6.38096 34.222 5.105L34.0837 5.06714C33.7116 4.96529 33.3691 4.77846 33.0837 4.52174L32.4992 3.9959C32.0157 3.56105 31.7402 2.94527 31.7402 2.29962V1.46513ZM44.0465 12.4767C44.0465 12.6887 43.9528 12.8921 43.7861 13.042C43.6195 13.1919 43.3934 13.2762 43.1577 13.2762C42.9542 13.2762 42.7578 13.2134 42.6007 13.0997C42.8681 13.8064 43.5525 14.476 44.5934 13.3992C45.5123 12.3986 44.5525 10.2883 43.6175 9.03599C43.3058 8.61858 42.7942 8.41768 42.2689 8.41768C41.7436 8.41768 41.232 8.61858 40.9203 9.03599C39.9852 10.2883 39.0254 12.3986 39.9444 13.3992C40.9853 14.476 41.6696 13.8064 41.9371 13.0997C41.78 13.2134 41.5836 13.2762 41.3801 13.2762C41.1444 13.2762 40.9183 13.1919 40.7516 13.042C40.585 12.8921 40.4913 12.6887 40.4913 12.4767H44.0465ZM38.8653 6.2297H36.3893L38.3406 7.77222C38.77 8.11161 39.3977 8.00311 39.6634 7.54353C39.9988 6.96327 39.5532 6.2297 38.8653 6.2297ZM45.6725 6.2297H48.1485L46.1972 7.77222C45.7678 8.11161 45.1401 8.00311 44.8744 7.54353C44.5389 6.96327 44.9845 6.2297 45.6725 6.2297Z" fill="black"/>
<path d="M55.7471 15.3184H57.9406V7.06031H55.7471V15.3184ZM55.7471 5.7725H57.9406V3.80859H55.7471V5.7725Z" fill="black"/>
<path d="M59.3545 18.0218H61.548V14.3837H61.5803C62.048 15.092 62.8061 15.5589 63.9674 15.5589C66.0964 15.5589 67.548 13.8686 67.548 11.1964C67.548 8.62081 66.1448 6.83398 63.9513 6.83398C62.8222 6.83398 62.048 7.3652 61.5158 8.08959H61.4674V7.05935H59.3545V18.0218ZM63.4997 13.7398C62.1932 13.7398 61.4997 12.7579 61.4997 11.2608C61.4997 9.77984 62.048 8.60472 63.419 8.60472C64.7738 8.60472 65.3222 9.69935 65.3222 11.2608C65.3222 12.8223 64.6126 13.7398 63.4997 13.7398Z" fill="black"/>
<path d="M71.9237 15.5589C73.9882 15.5589 75.4076 14.5608 75.4076 12.9028C75.4076 10.9711 73.8753 10.5847 72.4882 10.295C71.3108 10.0535 70.214 9.98911 70.214 9.28081C70.214 8.6852 70.7785 8.36325 71.6334 8.36325C72.5689 8.36325 73.1334 8.6852 73.2301 9.57057H75.214C75.0527 7.91252 73.8431 6.83398 71.6656 6.83398C69.7785 6.83398 68.2947 7.68715 68.2947 9.47398C68.2947 11.2769 69.7463 11.6793 71.2302 11.9691C72.3592 12.1945 73.4076 12.275 73.4076 13.0637C73.4076 13.6433 72.8592 14.0135 71.8914 14.0135C70.9076 14.0135 70.2302 13.595 70.085 12.6452H68.0527C68.1818 14.3998 69.5205 15.5589 71.9237 15.5589Z" fill="black"/>
<path d="M83.7362 15.3166V7.05859H81.5427V11.8235C81.5427 12.9181 80.9136 13.6908 79.8814 13.6908C78.9459 13.6908 78.5104 13.1596 78.5104 12.1937V7.05859H76.333V12.564C76.333 14.3669 77.3653 15.542 79.204 15.542C80.3653 15.542 81.0104 15.1074 81.5749 14.3508H81.6233V15.3166H83.7362Z" fill="black"/>
<path d="M85.1548 15.3174H87.3483V10.5203C87.3483 9.42569 87.9451 8.7174 88.8322 8.7174C89.6387 8.7174 90.1064 9.20032 90.1064 10.134V15.3174H92.2999V10.5203C92.2999 9.42569 92.8645 8.7174 93.7838 8.7174C94.5903 8.7174 95.058 9.20032 95.058 10.134V15.3174H97.2516V9.76374C97.2516 7.96081 96.2677 6.83398 94.5257 6.83398C93.4774 6.83398 92.6064 7.3813 92.0419 8.28276H92.0096C91.6064 7.4135 90.7677 6.83398 89.7193 6.83398C88.5741 6.83398 87.7677 7.4135 87.3161 8.17008H87.2677V7.05935H85.1548V15.3174Z" fill="black"/>
<path d="M0.367676 15.3184H2.56122V3.80859H0.367676V15.3184Z" fill="black"/>
<path d="M7.92466 15.5589C10.4892 15.5589 12.2472 13.6594 12.2472 11.1964C12.2472 8.7335 10.4892 6.83398 7.92466 6.83398C5.36012 6.83398 3.60205 8.7335 3.60205 11.1964C3.60205 13.6594 5.36012 15.5589 7.92466 15.5589ZM7.92466 13.8847C6.56982 13.8847 5.82788 12.8062 5.82788 11.1964C5.82788 9.58667 6.56982 8.49203 7.92466 8.49203C9.26337 8.49203 10.0214 9.58667 10.0214 11.1964C10.0214 12.8062 9.26337 13.8847 7.92466 13.8847Z" fill="black"/>
<path d="M16.9122 18.1345C18.138 18.1345 19.2025 17.8447 19.896 17.2008C20.5089 16.6374 20.8799 15.8486 20.8799 14.6896V7.05935H18.767V7.92862H18.7347C18.2347 7.23642 17.4767 6.83398 16.4444 6.83398C14.3476 6.83398 12.8638 8.41155 12.8638 10.8745C12.8638 13.3696 14.6702 14.8184 16.5089 14.8184C17.5573 14.8184 18.1863 14.3998 18.6702 13.8525H18.7186V14.754C18.7186 15.8808 18.1218 16.4764 16.8799 16.4764C15.8638 16.4764 15.396 16.074 15.2186 15.5589H13.0412C13.267 17.1686 14.6541 18.1345 16.9122 18.1345ZM16.8799 13.0637C15.7509 13.0637 15.0089 12.2428 15.0089 10.8423C15.0089 9.45789 15.7509 8.58862 16.8638 8.58862C18.1864 8.58862 18.8315 9.61886 18.8315 10.8262C18.8315 12.0496 18.267 13.0637 16.8799 13.0637Z" fill="black"/>
<path d="M26.2117 15.5589C28.7763 15.5589 30.5343 13.6594 30.5343 11.1964C30.5343 8.7335 28.7763 6.83398 26.2117 6.83398C23.6472 6.83398 21.8892 8.7335 21.8892 11.1964C21.8892 13.6594 23.6472 15.5589 26.2117 15.5589ZM26.2117 13.8847C24.8569 13.8847 24.115 12.8062 24.115 11.1964C24.115 9.58667 24.8569 8.49203 26.2117 8.49203C27.5504 8.49203 28.3085 9.58667 28.3085 11.1964C28.3085 12.8062 27.5504 13.8847 26.2117 13.8847Z" fill="black"/>
<path d="M97.1528 5.25667C97.1528 4.88623 97.4534 4.58594 97.8249 4.58594H99.169C99.5399 4.58594 99.841 4.88623 99.841 5.25667C99.841 5.62708 99.5399 5.92741 99.169 5.92741H97.8249C97.4534 5.92741 97.1528 5.62708 97.1528 5.25667Z" fill="black"/>
</g>
<defs>
<clipPath id="clip0_42_3393">
<rect width="100" height="22" fill="white"/>
</clipPath>
</defs>
</svg>
