<svg width="100" height="45" viewBox="0 0 100 45" fill="none" xmlns="http://www.w3.org/2000/svg">
<g clip-path="url(#clip0_42_3388)">
<path d="M58.6617 8.07368C58.8381 8.25216 59.0663 8.3717 59.3255 8.31044C61.5747 7.77806 63.778 7.05322 65.8179 5.94499C66.0633 5.81171 66.2518 5.50784 66.3444 5.25466C66.4501 4.96522 66.4929 4.56785 66.4079 4.26621C66.3373 4.01608 66.2151 3.72313 65.9688 3.60052C65.733 3.4832 65.4996 3.4913 65.2649 3.61871C64.6112 3.97397 63.9388 4.29167 63.2513 4.57477C61.9473 5.09018 60.5991 5.47452 59.2364 5.79705C58.6455 5.93689 58.3329 6.69222 58.3725 7.25314C58.3925 7.53637 58.4546 7.86429 58.6617 8.07368Z" fill="black"/>
<path d="M94.6548 8.74673C94.562 8.54931 94.4138 8.31052 94.1713 8.2899C93.9152 8.2682 93.7498 8.40473 93.5713 8.57355C92.6749 9.42267 91.9469 10.4316 91.057 11.2857C90.7634 11.5494 90.4519 11.7899 90.121 12.0044C90.2239 11.7858 90.3289 11.5684 90.4397 11.3539C90.7807 10.6921 91.1598 10.0511 91.5721 9.43211C91.7332 9.19869 91.8893 8.96875 91.9951 8.69781C92.1426 8.32111 92.1505 7.81087 91.9915 7.43636C91.8893 7.19538 91.6066 6.85432 91.2972 6.99218C91.1267 7.0682 91.0246 7.13684 90.8879 7.27973C90.844 7.32552 90.8023 7.3735 90.7598 7.42075C90.6613 7.53165 90.5634 7.64321 90.4656 7.75527C90.2692 7.98122 90.0749 8.20927 89.8821 8.43891C89.5152 8.87665 89.1548 9.31997 88.7951 9.76358C88.09 10.6318 87.385 11.5003 86.6318 12.3264C86.4224 12.5558 86.2102 12.7824 85.9929 13.0052C86.1224 12.7455 86.2476 12.4835 86.3699 12.2202C86.8534 11.1766 87.2915 10.1119 87.7965 9.07827C87.944 8.77634 88.0972 8.47687 88.2577 8.18161C88.3347 8.0395 88.4138 7.89848 88.4944 7.75854C88.5375 7.68371 88.5836 7.61011 88.6253 7.53456C88.7483 7.31377 88.8073 7.08357 88.867 6.83778C88.9289 6.57885 88.898 6.15332 88.7829 5.908C88.6778 5.68379 88.5462 5.52224 88.2994 5.45114C87.9203 5.34192 87.5857 5.84464 87.3591 6.09266C87.2095 6.25621 87.0598 6.41965 86.9102 6.58284C86.58 6.9429 86.2483 7.3023 85.9167 7.66128C85.2066 8.43035 84.4944 9.19782 83.7829 9.96586C83.2246 10.5685 82.6656 11.1705 82.108 11.7744C82.298 11.2102 82.4843 10.6442 82.6677 10.0773C82.8325 9.56798 83.0008 9.05955 83.1584 8.54815C83.3354 7.97519 83.3872 7.23046 82.9764 6.73653C82.7052 6.41014 82.2548 6.32004 81.9016 6.5792C81.567 6.82452 81.3742 7.24841 81.1577 7.59661C81.003 7.84571 80.849 8.09488 80.6944 8.34419C80.4052 8.81082 80.1159 9.27751 79.8253 9.7434C79.303 10.5816 78.7771 11.4181 78.2253 12.2374C77.7095 12.9962 77.1663 13.7565 76.5059 14.3933C76.2908 14.5832 76.0598 14.7546 75.8073 14.89C75.626 14.9664 75.4375 15.0197 75.2426 15.0459C75.2447 15.0362 75.2462 15.0265 75.2483 15.0168C75.2548 14.9908 75.262 14.9646 75.2692 14.9387C75.3512 14.6496 75.4512 14.3658 75.5598 14.0858C75.6138 13.945 75.6721 13.8056 75.7303 13.6665L75.7318 13.6634C75.767 13.5841 75.8023 13.5051 75.8382 13.4263C76.3462 12.3179 76.9347 11.2464 77.5548 10.1988C77.6893 9.97218 77.8246 9.74587 77.9649 9.52283C78.1095 9.29333 78.1627 8.99532 78.1821 8.73127C78.2008 8.48486 78.1929 8.1999 78.0857 7.97171C78.0174 7.82655 77.9296 7.68828 77.7987 7.59262C77.6174 7.45994 77.3598 7.50828 77.1886 7.62572C75.667 8.6679 74.1606 9.73484 72.6922 10.8524V10.8487C72.6958 10.814 72.6987 10.7791 72.7023 10.7444C72.7152 10.6147 72.7311 10.4851 72.7498 10.3559C72.7685 10.2274 72.79 10.0993 72.8138 9.97181C72.8253 9.91165 72.8562 9.78485 72.8742 9.70624C72.9246 9.52494 72.9771 9.34472 73.0411 9.16755C73.0627 9.10854 73.0865 9.05084 73.1095 8.99263C73.139 8.92615 73.1915 8.8074 73.2181 8.75464C73.2591 8.67378 73.3037 8.59518 73.3483 8.51628C73.5735 8.22748 73.7951 7.93571 74.0102 7.63849C74.1994 7.37619 74.3239 7.10457 74.3749 6.78041C74.4188 6.49895 74.4152 6.11648 74.2908 5.85063C74.198 5.65317 74.0498 5.41442 73.8073 5.39377C73.5584 5.37266 73.3749 5.50171 73.208 5.67746C72.8865 6.0157 72.6095 6.38492 72.3692 6.77618C71.5957 7.74025 70.7609 8.64961 69.8692 9.50926C69.7639 9.6108 69.6577 9.71176 69.5517 9.81265C69.5195 9.35437 69.4096 8.88049 69.198 8.48202C68.9533 8.02136 68.6085 7.64336 68.0816 7.5334C67.6242 7.43802 67.179 7.60648 66.7729 7.79563C66.3637 7.98623 65.9947 8.25572 65.648 8.54386C64.7972 9.25102 64.0375 10.0577 63.3243 10.9038C63.4182 10.7234 63.5129 10.543 63.6023 10.3603C63.7963 9.96405 63.9113 9.47965 63.8012 9.0377C63.7246 8.73018 63.5861 8.42977 63.2782 8.3124C62.7908 8.12667 62.3663 8.62581 62.0688 8.94981C61.7082 9.34254 61.34 9.72555 60.9943 10.1322C60.5482 10.6568 60.1191 11.1959 59.6949 11.7385C59.2031 12.3674 58.7185 13.0019 58.2336 13.6362C58.5574 12.9448 58.8501 12.2291 58.9831 11.4808C59.0816 10.9265 59.0719 10.2331 58.7099 9.76801C58.4426 9.42463 58.055 9.34254 57.6465 9.4271C57.427 9.47261 57.2197 9.57516 57.0174 9.6677C56.8152 9.76032 56.6206 9.8681 56.4301 9.98299C56.1049 10.1791 55.7905 10.3937 55.482 10.6164C55.4427 10.5144 55.389 10.4201 55.315 10.3418C55.1577 10.1758 54.924 10.0297 54.6844 10.1105C52.8981 10.7129 51.2233 11.6364 49.7726 12.8491C49.0031 13.4922 48.2821 14.1823 47.6378 14.9542C46.9216 15.8124 46.2489 16.7322 45.8123 17.7696C45.632 18.1978 45.5099 18.6708 45.463 19.1439C44.7242 19.715 43.9824 20.2823 43.2384 20.8466C44.2702 19.2517 45.2864 17.6465 46.2717 16.0221C46.5693 15.5314 46.8682 15.0404 47.1419 14.5355C47.2875 14.2668 47.438 13.991 47.5375 13.7017C47.7052 13.2136 47.7384 12.5497 47.3767 12.1313C47.198 11.9245 46.9789 11.8516 46.7207 11.8887C46.5184 11.9178 46.3617 12.0661 46.2154 12.1925C45.9732 12.4017 45.7716 12.6654 45.569 12.9123C45.4156 13.0993 45.265 13.2885 45.1151 13.4784C45.0142 13.2038 44.8821 12.9474 44.7105 12.7002C44.5327 12.4442 44.2781 12.2046 43.9974 12.0695C42.9449 11.5632 41.8116 12.1361 40.9471 12.767C40.1127 13.3759 39.3638 14.0953 38.6438 14.8381C38.609 14.8647 38.5747 14.8931 38.5422 14.9247C38.4079 15.0559 38.2678 15.1799 38.1232 15.2989C37.9078 15.4544 37.6803 15.5896 37.4374 15.6964C37.24 15.7604 37.0378 15.8019 36.8311 15.8192C36.7158 15.816 36.6011 15.8077 36.4877 15.79C36.4906 15.701 36.4921 15.612 36.4913 15.5227C36.4836 14.6438 36.2616 13.6652 35.6977 12.9734C35.3635 12.5635 34.8742 12.358 34.3539 12.4064C34.0768 12.4321 33.8306 12.563 33.625 12.7482C33.5167 12.7551 33.4103 12.7855 33.3151 12.8499C31.7724 13.893 30.3662 15.1078 29.1044 16.4661C29.0756 16.4906 29.048 16.5168 29.0231 16.546C28.9952 16.5788 28.9671 16.6115 28.9391 16.6443C28.6211 16.9933 28.3132 17.3525 28.0144 17.7198C26.6237 19.3238 25.1932 20.8939 23.6327 22.3322C23.0754 22.8457 22.5013 23.3405 21.9073 23.8103C21.2082 24.349 20.4806 24.8503 19.713 25.2848C19.4631 25.4263 19.274 25.7098 19.1763 25.9735C19.0692 26.2626 19.0272 26.6612 19.1152 26.9623C19.1891 27.2156 19.3174 27.5074 19.5676 27.6301C19.8045 27.7462 20.0536 27.7478 20.2886 27.6147C21.8766 26.7158 23.3163 25.546 24.6567 24.309C25.0291 23.9653 25.3939 23.6131 25.7531 23.2556C25.7693 23.3236 25.7871 23.3913 25.8082 23.458C26.0534 24.2351 26.577 24.9279 27.3302 25.2644C28.0765 25.5978 28.9027 25.6193 29.6879 25.4119C31.8537 24.8396 33.4325 23.1814 34.5705 21.3024C34.4335 21.9491 34.3772 22.6076 34.5397 23.2642C34.7188 23.9882 35.1621 24.6927 35.9395 24.8376C36.5071 24.9434 37.0703 24.6902 37.5631 24.4369C38.2854 24.0656 38.9383 23.547 39.5472 22.9984C39.2574 23.4358 38.9664 23.8724 38.6756 24.309C37.6249 25.1148 36.5795 25.9283 35.5452 26.7558C34.2659 27.1016 32.9902 27.4608 31.7191 27.8367C30.3362 28.2457 28.9585 28.6731 27.5875 29.1211C26.273 29.5504 24.9645 29.9985 23.6634 30.4674C22.3516 30.9404 21.0475 31.4354 19.7513 31.9504C18.5809 32.4155 17.4181 32.9 16.2649 33.4066C15.1657 33.8894 14.0752 34.3924 12.9957 34.9183C11.9807 35.4129 10.9754 35.9277 9.98271 36.4665C9.04883 36.9733 8.12609 37.5011 7.21796 38.0536C6.78641 38.3162 6.35823 38.5846 5.93388 38.8588C5.94051 38.8497 5.94714 38.8405 5.95377 38.8313C7.17832 37.1268 8.38912 35.4122 9.59674 33.6956C10.5062 32.4026 11.4148 31.109 12.3256 29.817C12.3682 29.7865 12.4108 29.7561 12.4533 29.7255C13.634 28.8737 14.7899 27.9877 15.9326 27.0849C17.1393 26.1317 18.327 25.1542 19.4987 24.1577C20.744 23.0985 21.9713 22.0176 23.18 20.916C24.4121 19.7931 25.6252 18.6489 26.8156 17.4813C27.9827 16.3366 29.1284 15.1696 30.2449 13.9746C31.2959 12.85 32.3216 11.7008 33.3071 10.5174C34.248 9.38754 35.1592 8.22879 36.0053 7.02468C36.357 6.52406 36.697 6.01499 37.0195 5.49467C37.4229 4.84376 37.8782 4.15215 38.081 3.40949C38.2393 2.83003 38.3587 2.18745 38.1632 1.5992C38.0731 1.32795 37.9631 1.06468 37.7548 0.860651C37.5438 0.654162 37.3598 0.563471 37.0844 0.475596C36.7616 0.372587 36.3859 0.406728 36.0582 0.471725C35.6514 0.552443 35.2538 0.713058 34.8803 0.890685C33.9426 1.33651 33.0968 1.97393 32.2964 2.63094C31.5032 3.2822 30.7496 3.98777 30.018 4.70837C28.5326 6.17127 27.0932 7.68146 25.6959 9.23011C24.3207 10.7545 22.9862 12.316 21.6861 13.906C20.3447 15.5464 19.038 17.2159 17.757 18.9047C16.5266 20.5266 15.3211 22.1677 14.1301 23.8193C13.1742 25.1451 12.2288 26.4785 11.2863 27.8138C10.3536 28.4733 9.40537 29.1122 8.42545 29.6976C7.75825 30.0961 7.0733 30.4798 6.35241 30.7719C6.11832 30.8579 5.87539 30.9324 5.62827 30.9592C5.60629 30.9575 5.58454 30.9549 5.5628 30.9516C5.48046 30.9198 5.39476 30.909 5.30532 30.9219C5.17601 30.9111 5.05507 30.943 4.94261 31.0178C4.70027 31.154 4.49163 31.4459 4.40477 31.7064C4.30115 32.0174 4.24999 32.3748 4.34383 32.6951C4.41314 32.9318 4.54676 33.2705 4.79771 33.3632C4.9454 33.4178 5.08251 33.4783 5.23858 33.4892C5.40953 33.5013 5.58594 33.4937 5.7563 33.4716C6.00389 33.4396 6.24577 33.3638 6.47975 33.2781C6.95945 33.1026 7.4225 32.8918 7.87501 32.6588C7.58775 33.0668 7.30099 33.4752 7.01318 33.8828C5.80654 35.5912 4.59304 37.2946 3.36291 38.9858C2.73983 39.8424 2.11243 40.6958 1.47969 41.545C1.09709 42.0586 0.613672 42.5777 0.536222 43.2444C0.48831 43.6569 0.535757 44.126 0.827181 44.4474C1.0165 44.6561 1.29689 44.7525 1.57307 44.698C1.86671 44.6402 2.1115 44.429 2.33315 44.2443C2.66109 43.9712 2.99136 43.7013 3.32651 43.4372C4.18068 42.776 5.0603 42.1486 5.95935 41.5511C6.97841 40.8738 8.02142 40.2335 9.08127 39.6234C10.2203 38.9679 11.3788 38.3471 12.5516 37.7554C13.8138 37.1186 15.0925 36.5152 16.3834 35.9402C17.7539 35.3297 19.1382 34.7512 20.5331 34.2C20.6606 34.1496 20.7881 34.0997 20.9157 34.0499C22.5842 33.4019 24.2667 32.7911 25.9605 32.2136C27.6206 31.6477 29.2917 31.1147 30.9705 30.6081C30.1529 31.3406 29.3503 32.09 28.5683 32.8611C27.4881 33.9265 26.4098 35.0153 25.5003 36.2349C24.4728 37.6128 23.6516 39.1529 23.295 40.8512C23.1181 41.6938 23.1143 42.655 23.4961 43.4445C23.6744 43.8135 23.941 44.1762 24.3147 44.3594C24.588 44.4935 24.8777 44.5791 25.1816 44.5742C25.5043 44.569 25.8029 44.5304 26.1049 44.4132C26.4271 44.2883 26.735 44.1427 27.0254 43.9545C27.5729 43.5995 28.0744 43.1567 28.5298 42.6887C29.5767 41.6126 30.3781 40.3281 31.1856 39.0684C32.8745 36.4336 34.6078 33.8283 36.3475 31.2277C36.9265 30.3622 37.5062 29.4972 38.0857 28.6319C39.8824 28.1733 41.6857 27.7401 43.4947 27.3335C45.6649 26.8457 47.8431 26.3936 50.0273 25.9745C51.5995 25.6727 53.1751 25.3891 54.7532 25.1207C54.4364 25.9728 54.1887 26.8567 54.1502 27.7657C54.1402 28.002 54.1613 28.245 54.2085 28.4757C54.2814 28.8331 54.5203 29.228 54.9246 29.2089C55.3245 29.19 55.6373 28.7722 55.7433 28.4114C56.1052 27.1797 56.5108 25.962 56.9506 24.7569C67.4363 23.0746 78.0289 21.3871 88.6375 20.9667C89.2404 20.9428 89.608 20.5548 89.5807 20.2C89.5411 19.6809 89.2685 19.3373 88.5972 19.3373C78.3972 19.742 68.2524 20.8691 58.1013 22.0442C58.2315 21.804 58.3629 21.5645 58.4962 21.3261C59.0741 20.2921 59.6822 19.2752 60.3149 18.2743C60.3989 18.5411 60.5074 18.799 60.6513 19.04C60.8251 19.3312 61.0514 19.6139 61.3676 19.7549C61.704 19.905 62.0366 19.9396 62.3992 19.8524C63.1273 19.6775 63.7434 19.1437 64.2803 18.6488C64.887 18.0896 65.4242 17.4541 65.9338 16.8053C66.4579 16.1378 66.9572 15.4494 67.4368 14.7472C67.9613 14.1183 68.5216 13.5206 69.1131 12.9489C69.7808 12.3038 70.463 11.6752 71.1218 11.0223C71.0965 11.3853 71.0875 11.7471 71.0918 12.1053C70.1061 12.9016 69.1438 13.7323 68.2524 14.6337C67.6582 15.2343 67.0514 15.8982 66.6677 16.6611C66.4296 17.1343 66.2813 17.6278 66.2667 18.1607C66.2558 18.5601 66.3486 19.0038 66.5986 19.3245C66.9461 19.7703 67.4917 19.7947 68.0035 19.7415C68.4771 19.6924 68.9403 19.5303 69.3736 19.3373C69.9526 19.0795 70.5109 18.7724 71.0126 18.3813C71.5798 17.939 72.0713 17.4219 72.4418 16.8007C72.9008 16.0295 73.08 15.0992 72.9454 14.2119C72.9037 13.9364 72.857 13.6623 72.8145 13.3875C73.4339 12.9134 74.0613 12.4499 74.6922 11.9933C74.6757 12.0294 74.6584 12.0651 74.6418 12.1013C74.3339 12.789 74.0311 13.4905 73.8454 14.2236C73.6404 15.0332 73.4728 15.9469 73.8052 16.7491C73.9203 17.0275 74.1174 17.3131 74.3951 17.4461C74.7152 17.5995 75.0073 17.5996 75.3548 17.5387C75.8778 17.4472 76.3778 17.1619 76.7872 16.8289C77.3548 16.3668 77.8411 15.8125 78.2857 15.2315C78.9016 14.4257 79.4591 13.5733 80.008 12.7196C80.0728 12.6186 80.1368 12.5169 80.2008 12.4157C80.0454 12.8532 79.8864 13.2896 79.721 13.7236C79.6095 14.0156 79.4958 14.3065 79.3793 14.5964C79.3246 14.731 79.2699 14.8653 79.2138 14.9993C79.185 15.0696 79.1555 15.1398 79.126 15.2098C79.0857 15.3053 78.9526 15.6126 79.1318 15.1974C78.9958 15.5131 78.8972 15.8083 78.9016 16.1592C78.9052 16.4083 78.9627 16.772 79.1354 16.971C79.2771 17.1349 79.4771 17.2673 79.7052 17.1927C79.9303 17.1193 80.1311 16.9299 80.2375 16.7173C80.4426 16.4465 80.6807 16.1953 80.9044 15.9437C81.4052 15.3797 81.9145 14.8231 82.4246 14.2675C83.1994 13.4232 83.9778 12.5823 84.7562 11.7418C84.6476 11.9557 84.5354 12.1687 84.4195 12.3788C84.2584 12.668 84.0713 12.9462 83.9347 13.248C83.6663 13.8404 83.5124 14.4897 83.639 15.1409C83.7181 15.5475 83.9289 15.9999 84.3066 16.2053C84.6987 16.4189 85.0865 16.3466 85.467 16.1523C85.7821 15.9914 86.0282 15.7225 86.2807 15.4789C86.9893 14.7941 87.6512 14.0631 88.29 13.3118C88.4037 13.7506 88.685 14.1604 89.0908 14.3682C89.2771 14.4638 89.4922 14.5522 89.7052 14.5623C90.0231 14.5774 90.2476 14.5083 90.5159 14.3376C91.2613 13.8648 91.9073 13.2421 92.4972 12.587C93.1181 11.8972 93.6994 11.1735 94.3742 10.5345C94.5764 10.3431 94.698 9.93748 94.739 9.67656C94.7828 9.39509 94.7793 9.01259 94.6548 8.74673ZM20.4666 18.694C20.5767 18.5524 20.6874 18.4111 20.798 18.2697C22.3052 16.3509 23.8541 14.4649 25.459 12.6281C27.107 10.742 28.8135 8.90749 30.5861 7.13989C31.5418 6.18687 32.5198 5.24406 33.5788 4.40697C34.2337 3.90624 34.9361 3.4326 35.698 3.117C35.8704 3.05659 36.047 3.00684 36.2268 2.97622C35.9433 3.50851 35.6173 4.02226 35.2892 4.52547C34.8846 5.14563 34.4582 5.75113 34.0175 6.34561C33.789 6.65382 33.5559 6.95862 33.3201 7.26129C32.341 8.50351 31.3114 9.70494 30.2511 10.8771C29.075 12.1772 27.8612 13.4425 26.6216 14.6809C25.3424 15.9591 24.0352 17.2087 22.7053 18.433C21.3947 19.6396 20.062 20.8218 18.7077 21.9783C18.0686 22.5241 17.4249 23.0643 16.7757 23.598C17.9842 21.9468 19.2111 20.3091 20.4666 18.694ZM48.0144 17.6162C48.6914 16.7072 49.4657 15.8763 50.3221 15.1377C51.3348 14.2994 52.451 13.595 53.6447 13.0514C53.6493 13.105 53.6568 13.1569 53.6674 13.2071C53.5321 13.5898 53.3811 13.9669 53.216 14.338C52.8211 15.1729 52.3531 15.9703 51.8158 16.7201C51.1786 17.5687 50.4542 18.3475 49.6488 19.0358C49.2618 19.3563 48.8559 19.6662 48.4042 19.8841C48.2489 19.9415 48.0902 19.9821 47.9257 20.0015C47.8284 19.9961 47.7331 19.9802 47.6385 19.9552C47.5686 19.9207 47.5022 19.8807 47.439 19.8347C47.3883 19.7813 47.3417 19.7248 47.2981 19.6654C47.2691 19.6099 47.2431 19.5531 47.2189 19.4954C47.2039 19.4384 47.1906 19.3809 47.1797 19.323C47.1785 19.296 47.1777 19.269 47.1774 19.2421C47.1862 19.1758 47.197 19.1099 47.2101 19.0443C47.2444 18.936 47.2832 18.8295 47.3264 18.7245C47.5216 18.3349 47.7609 17.9698 48.0144 17.6162ZM32.5165 20.7837C32.1392 21.2488 31.7209 21.6777 31.254 22.0514C30.8566 22.3409 30.4302 22.585 29.9763 22.7728C29.6262 22.8968 29.2655 22.9846 28.8954 23.0125C28.6692 23.008 28.4461 22.9777 28.2287 22.9148C28.0846 22.8521 27.9485 22.7748 27.8203 22.6832C27.7582 22.6241 27.7001 22.5613 27.6458 22.495C27.6195 22.4494 27.5944 22.403 27.572 22.3555C27.565 22.33 27.5575 22.3044 27.5513 22.2787C27.5496 22.2494 27.5486 22.2197 27.5479 22.1903C27.5553 22.1354 27.5641 22.0807 27.5747 22.0263C27.619 21.8875 27.6711 21.7517 27.7298 21.6183C28.064 20.9774 28.5025 20.3874 28.9473 19.8184C29.0344 19.7087 29.1237 19.6009 29.2127 19.4928C29.4321 19.2383 29.6504 18.9826 29.8686 18.7269C30.7675 17.7243 31.7509 16.8006 32.8083 15.9683C32.9154 15.8864 33.0234 15.8059 33.132 15.7261C33.1999 15.916 33.2809 16.1005 33.3741 16.2757C33.6091 16.7177 33.9206 17.114 34.2916 17.4446C34.1268 17.9171 33.9303 18.3792 33.7165 18.8304C33.3736 19.5156 32.9786 20.1736 32.5165 20.7837ZM38.3634 21.2232C37.8839 21.611 37.3722 21.9707 36.8095 22.2228C36.6894 22.2677 36.5675 22.3029 36.4406 22.3213C36.3974 22.3179 36.3547 22.3118 36.3122 22.3028C36.2928 22.2922 36.2734 22.2815 36.2547 22.2696C36.2504 22.2646 36.2464 22.2591 36.2421 22.2541C36.2377 22.2453 36.2329 22.2369 36.2288 22.2281C36.2229 22.2041 36.2164 22.1803 36.2113 22.1561C36.2082 22.1017 36.2067 22.0472 36.2068 21.9926C36.2216 21.8837 36.2423 21.7758 36.2659 21.6685C36.3664 21.3043 36.4941 20.9496 36.6465 20.6044C36.9026 20.0883 37.2095 19.6012 37.546 19.1348C38.0199 18.509 38.5359 17.9243 39.0721 17.354C39.2405 17.2167 39.4034 17.0726 39.5588 16.9208C39.6482 16.8336 39.7238 16.7261 39.7862 16.6097C40.2226 16.1669 40.6722 15.7373 41.148 15.3383C41.5344 15.0292 41.9438 14.7411 42.3924 14.5334C42.564 14.4698 42.7406 14.4232 42.9224 14.4034C43.0034 14.4082 43.0834 14.4198 43.162 14.4394C43.22 14.4681 43.2754 14.5011 43.3285 14.5383C43.3718 14.5833 43.4124 14.6308 43.4501 14.6807C43.478 14.7334 43.5029 14.7873 43.5263 14.842C43.55 14.9279 43.5697 15.0147 43.5853 15.1025C43.5898 15.1744 43.5919 15.2464 43.5916 15.3185C43.5883 15.3482 43.5859 15.378 43.5818 15.4074C42.2785 17.0559 40.9686 18.7084 39.481 20.1922C39.1219 20.5504 38.7511 20.8964 38.3634 21.2232ZM30.7154 36.2896C30.1344 37.1857 29.5795 38.1025 28.9763 38.9835C28.8413 39.1807 28.7026 39.375 28.5613 39.5677C28.0812 40.1975 27.5562 40.7912 26.9539 41.3047C26.6573 41.5386 26.3424 41.7505 26.0012 41.9114C25.8244 41.977 25.6426 42.0243 25.4554 42.0441C25.3628 42.0391 25.2715 42.0262 25.1816 42.0037C25.1372 41.9828 25.0936 41.9597 25.0515 41.9343C25.0396 41.9201 25.0283 41.9055 25.017 41.8909C25.0012 41.8604 24.9865 41.8293 24.9726 41.7979C24.9655 41.769 24.9595 41.7399 24.9536 41.7108C24.9508 41.6538 24.9496 41.5967 24.9501 41.5397C24.9672 41.3924 24.9915 41.2465 25.0224 41.1016C25.1385 40.6793 25.2886 40.2645 25.4664 39.8647C25.7865 39.2115 26.1717 38.5937 26.5978 38.0055C27.4623 36.8667 28.49 35.8447 29.5047 34.8439C30.5596 33.8036 31.6519 32.8023 32.7681 31.8293C33.3709 31.3038 33.9816 30.7874 34.5969 30.2768C34.6619 30.223 34.7277 30.1703 34.7929 30.1167C34.0285 31.2602 33.2654 32.4045 32.5075 33.5525C31.9066 34.4625 31.3088 35.3745 30.7154 36.2896ZM45.3008 24.399C43.7938 24.7227 42.2903 25.0637 40.7909 25.4221C41.8641 24.6081 42.9389 23.7965 44.0117 22.982C44.6631 22.4875 45.3123 21.9899 45.9596 21.4899C46.2717 21.971 46.6708 22.3292 47.2406 22.486C47.8284 22.6477 48.4475 22.441 48.971 22.178C49.3936 21.9655 49.7723 21.6694 50.1383 21.371C50.54 21.0436 50.9311 20.7029 51.3008 20.3389C52.0057 19.6449 52.6269 18.8746 53.1935 18.0627C54.197 16.6251 54.9727 14.9943 55.4603 13.3018C55.7586 13.0759 56.0609 12.8552 56.3702 12.645C56.5624 12.5145 56.7578 12.3867 56.9582 12.2677C56.575 13.1043 56.1466 13.92 55.7162 14.7325C55.2016 15.7041 54.6776 16.6706 54.1759 17.649C53.9136 18.1607 53.6572 18.6758 53.4159 19.1981C53.297 19.4559 53.2128 19.701 53.1928 19.9887C53.1756 20.2369 53.1885 20.5234 53.3027 20.7504C53.3773 20.8988 53.4734 21.0369 53.6108 21.1329C53.8045 21.2683 54.0715 21.2213 54.2579 21.1057C54.5634 20.9158 54.8359 20.6672 55.099 20.4239C55.3729 20.1707 55.6303 19.8995 55.8808 19.6229C56.508 18.93 57.0938 18.1992 57.6713 17.4641C58.0714 16.9547 58.4657 16.4404 58.8588 15.9255C57.9774 17.7768 57.1344 19.649 56.3654 21.5511C56.2229 21.829 56.0832 22.1083 55.9466 22.3891C55.708 22.4283 55.4693 22.4671 55.2308 22.5069C53.5448 22.7893 51.8617 23.0903 50.1824 23.4105C48.5515 23.7215 46.9241 24.0504 45.3008 24.399ZM63.8518 16.2438C63.6797 16.4225 63.5011 16.5947 63.3163 16.7601C63.0805 16.957 62.83 17.1398 62.557 17.2789C62.4534 17.3188 62.3468 17.3492 62.2372 17.3659C62.1924 17.3627 62.148 17.3565 62.1042 17.3467C62.0803 17.3334 62.057 17.3191 62.0344 17.3037C62.0028 17.268 61.9729 17.231 61.9454 17.192C61.9118 17.1236 61.8823 17.0532 61.8555 16.9817C61.7923 16.75 61.749 16.5133 61.718 16.275C61.7146 16.2376 61.7111 16.2002 61.7082 16.1627C61.857 15.9465 62.0057 15.7303 62.1572 15.5162C62.6568 14.8183 63.1714 14.1313 63.7096 13.4632C64.2139 12.8373 64.7377 12.2258 65.2971 11.6491C65.5491 11.3891 65.8097 11.1375 66.0804 10.8974C66.4143 10.6145 66.7706 10.3486 67.1621 10.1551C67.2902 10.1045 67.4229 10.0662 67.559 10.0473C67.6037 10.0502 67.648 10.0564 67.6918 10.0658C67.7142 10.0781 67.7364 10.0909 67.7577 10.1054C67.7728 10.1231 67.7877 10.141 67.8016 10.1598C67.8178 10.1941 67.8328 10.2287 67.8467 10.2639C67.8606 10.3193 67.8728 10.3752 67.8829 10.4315C67.8843 10.4661 67.8849 10.5009 67.8849 10.5355C67.8807 10.5652 67.8757 10.5951 67.8706 10.6248C67.8552 10.6725 67.838 10.7198 67.8201 10.7666C67.6385 11.1181 67.4041 11.4512 67.1936 11.7819C66.9254 12.2035 66.6514 12.6216 66.3711 13.0352C66.2083 13.2753 66.0426 13.5135 65.875 13.7504C65.2511 14.6202 64.5941 15.4734 63.8518 16.2438ZM71.4557 15.0541C71.4505 15.0652 71.4453 15.0762 71.4402 15.0871C71.4417 15.0805 71.4433 15.0741 71.4448 15.0678C71.5287 14.8662 71.4931 14.9746 71.4557 15.0541ZM71.4041 15.1568C71.3727 15.2182 71.3391 15.2783 71.3033 15.337C71.1746 15.5111 71.0313 15.6735 70.8773 15.8253C70.5251 16.1399 70.1356 16.4117 69.7247 16.642C69.6187 16.7015 69.5104 16.7567 69.4015 16.8107C69.1263 16.9366 68.8418 17.0466 68.5498 17.1267C68.75 16.9042 68.9586 16.6895 69.1695 16.4798C69.3259 16.3244 69.486 16.1727 69.6468 16.0219C70.187 15.5247 70.7434 15.0453 71.3108 14.5787C71.3424 14.7713 71.3747 14.9638 71.4041 15.1568ZM89.6922 12.989C89.6829 13.0146 89.6742 13.0405 89.6634 13.0659C89.5721 13.2747 89.6239 13.1502 89.6922 12.989Z" fill="black"/>
<path d="M96.9887 5.34573C97.0563 5.27655 97.1319 5.18815 97.2247 5.08438C97.3182 4.9806 97.411 4.87299 97.5125 4.75768C97.6096 4.64238 97.7024 4.53091 97.7873 4.42715C97.8715 4.32337 97.9434 4.23113 98.0024 4.15426C98.0614 4.08123 98.0909 4.03126 98.0995 4.00436C98.1082 3.97746 98.1125 3.9544 98.1125 3.93518C98.1125 3.86215 98.0571 3.82372 97.9477 3.82372C97.7952 3.82372 97.601 3.866 97.3686 3.95055L97.3729 3.98514C97.3729 4.00436 97.36 4.05048 97.3305 4.12735C97.3053 4.20806 97.2715 4.308 97.229 4.42715C97.124 4.74615 97.0434 5.05363 96.9887 5.34573ZM96.6506 6.57564C96.8448 6.57564 97.0391 6.5103 97.2333 6.37962C97.4276 6.24895 97.6139 6.0683 97.7909 5.8377C97.4117 5.9714 97.1376 6.27728 96.9038 6.38347L96.8448 6.39116C96.6887 6.39116 96.5787 6.29507 96.5197 6.10674C96.4729 5.97222 96.4477 5.80695 96.4477 5.61093C96.4477 5.24964 96.4945 4.88836 96.5916 4.53091C96.642 4.31184 96.701 4.12735 96.7729 3.97361C96.8448 3.82372 96.9081 3.73531 96.9715 3.70842L96.9671 3.67766C96.9671 3.6546 96.9801 3.63538 97.0096 3.61617C97.0477 3.58927 97.1448 3.55851 97.2923 3.52392C97.4319 3.50471 97.5549 3.49702 97.6599 3.49702C97.8247 3.49702 97.9772 3.51624 98.1125 3.55083C98.2643 3.59695 98.3743 3.67382 98.4499 3.78144C98.4923 3.85062 98.5139 3.92365 98.5139 3.99283C98.5139 4.21959 98.3405 4.5386 97.9938 4.94601C97.8542 5.10359 97.6938 5.28039 97.5081 5.47641L97.7995 5.3957C97.9053 5.36879 98.011 5.35726 98.1125 5.35726C98.2139 5.18431 98.3024 5.00751 98.3866 4.83071C98.5434 4.4848 98.6571 4.17348 98.7204 3.90059C98.742 3.78912 98.7542 3.6892 98.7542 3.60848C98.7377 3.40478 98.6657 3.26641 98.5391 3.1857C98.4585 3.13958 98.3571 3.11652 98.2348 3.11652C98.0952 3.11652 97.9434 3.14727 97.77 3.20876C97.5628 3.28179 97.3564 3.38172 97.1448 3.51624C96.9333 3.65076 96.752 3.79297 96.6038 3.9467C96.4348 4.11582 96.3168 4.26956 96.2578 4.40793C96.0844 4.9191 95.9873 5.35726 95.9743 5.7147C95.9743 5.85307 95.983 5.96837 96.0038 6.06446C96.0463 6.27201 96.1477 6.41806 96.3168 6.50262C96.4096 6.55258 96.5197 6.57564 96.6506 6.57564ZM96.9038 7.0138C96.7391 7.0138 96.583 6.99074 96.4304 6.94846C96.1902 6.88312 95.983 6.76781 95.801 6.60255C95.611 6.42959 95.4758 6.20667 95.3959 5.93378C95.3362 5.75698 95.311 5.56481 95.311 5.36111C95.311 5.23042 95.3197 5.08822 95.3448 4.94217C95.3197 4.93448 95.2945 4.92679 95.2729 4.91526C95.2096 4.88067 95.1758 4.81533 95.1758 4.72693C95.1758 4.58088 95.2564 4.38871 95.4168 4.14657C95.5391 3.96208 95.6959 3.77759 95.8902 3.58927C96.0801 3.40093 96.2959 3.23567 96.5362 3.08577C96.9376 2.83978 97.3391 2.7168 97.7405 2.7168C97.9139 2.7168 98.0743 2.72833 98.2304 2.75908C98.6786 2.84363 98.9952 2.99737 99.1772 3.22414C99.2614 3.32791 99.3038 3.45475 99.3038 3.60464V3.67766C99.2448 4.26956 99.101 4.83071 98.8772 5.36494C98.7463 5.68011 98.5851 5.95684 98.3952 6.20282C97.9772 6.74475 97.4787 7.0138 96.9038 7.0138Z" fill="black"/>
<path d="M93.0403 19.1408C92.4338 19.0874 91.8129 19.0921 91.2144 19.1716C90.9842 19.2022 90.787 19.3205 90.6561 19.4621C90.5093 19.6222 90.4122 19.862 90.4273 20.0596C90.441 20.242 90.4942 20.4511 90.6712 20.5887C90.8252 20.7089 91.028 20.7929 91.2561 20.7626C91.5878 20.7186 91.9237 20.6985 92.2611 20.6999C92.3914 20.7048 92.5208 20.712 92.6503 20.7234C92.8849 20.7441 93.0863 20.6961 93.2626 20.5781C93.4482 20.4532 93.5928 20.2404 93.6295 20.0543C93.6683 19.8599 93.6683 19.6383 93.5374 19.459C93.4345 19.3171 93.2698 19.1609 93.0403 19.1408Z" fill="black"/>
</g>
<defs>
<clipPath id="clip0_42_3388">
<rect width="100" height="45" fill="white"/>
</clipPath>
</defs>
</svg>
