<svg width="56" height="55" viewBox="0 0 56 55" fill="none" xmlns="http://www.w3.org/2000/svg">
<rect width="55.1867" height="55" rx="27.5" fill="#625DF5"/>
<path d="M45.1867 25.6683H34.4677L43.7504 20.3367L41.9096 17.1633L32.6257 22.495L37.9841 13.2608L34.7949 11.4292L29.4354 20.661V10H25.7514V20.6622L20.3919 11.4292L17.2015 13.2608L22.5598 22.4927L13.2783 17.1633L11.4363 20.3367L20.719 25.6683H10V29.3328H20.7178L11.4363 34.6645L13.2771 37.8378L22.561 32.5062L17.2015 41.7403L20.3907 43.572L25.7514 34.339V45H29.4354V34.1103L34.8933 43.5137L37.8844 41.7963L32.4252 32.3907L41.9072 37.8367L43.7492 34.6633L34.4677 29.3317H45.1855V25.6683H45.1867V25.6683ZM27.5934 32.4817C26.9357 32.4817 26.2845 32.3529 25.6769 32.1026C25.0693 31.8523 24.5172 31.4853 24.0522 31.0226C23.5871 30.56 23.2182 30.0107 22.9664 29.4062C22.7147 28.8017 22.5851 28.1538 22.585 27.4994C22.5849 26.8451 22.7144 26.1971 22.966 25.5925C23.2176 24.9879 23.5864 24.4386 24.0513 23.9759C24.5163 23.5131 25.0683 23.146 25.6758 22.8955C26.2834 22.645 26.9346 22.5161 27.5922 22.516C28.9203 22.5158 30.1941 23.0407 31.1334 23.975C32.0726 24.9094 32.6004 26.1767 32.6005 27.4982C32.6007 28.8198 32.0732 30.0872 31.1342 31.0218C30.1952 31.9564 28.9215 32.4815 27.5934 32.4817V32.4817Z" fill="white"/>
</svg>
