<svg width="53" height="55" viewBox="0 0 53 55" fill="none" xmlns="http://www.w3.org/2000/svg">
<rect width="53" height="55" rx="26.5" fill="#FFE01D"/>
<path fill-rule="evenodd" clip-rule="evenodd" d="M34.822 26.5385C35.0777 26.5082 35.3225 26.5066 35.5478 26.5385C35.6782 26.2399 35.7003 25.7254 35.5832 25.165C35.4093 24.332 35.1734 23.828 34.6862 23.9065C34.199 23.9851 34.1811 24.5886 34.3554 25.4212C34.4535 25.8899 34.6278 26.2904 34.822 26.5385Z" fill="black"/>
<path fill-rule="evenodd" clip-rule="evenodd" d="M30.6421 27.1977C30.9904 27.3506 31.2048 27.452 31.2885 27.3634C31.3426 27.3082 31.3262 27.2028 31.243 27.0671C31.071 26.7867 30.7172 26.502 30.3417 26.3422C29.5743 26.012 28.6586 26.1217 27.9523 26.6288C27.7192 26.7995 27.4982 27.0359 27.5297 27.1794C27.5398 27.2257 27.5748 27.2607 27.6565 27.2724C27.8488 27.2942 28.5205 26.9551 29.2945 26.9076C29.8405 26.8742 30.2934 27.0449 30.6421 27.1977Z" fill="black"/>
<path fill-rule="evenodd" clip-rule="evenodd" d="M29.9426 27.5975C29.4884 27.6691 29.2382 27.8188 29.0775 27.9576C28.9405 28.0774 28.8557 28.21 28.8565 28.303C28.8568 28.3473 28.8759 28.373 28.8911 28.3858C28.9117 28.4041 28.9362 28.4142 28.9658 28.4142C29.0682 28.4142 29.2981 28.322 29.2981 28.322C29.9297 28.0961 30.3465 28.1237 30.7594 28.1704C30.9875 28.196 31.0956 28.21 31.1454 28.1319C31.1602 28.1093 31.1781 28.0607 31.1326 27.9868C31.0264 27.8145 30.5676 27.5232 29.9426 27.5975Z" fill="black"/>
<path fill-rule="evenodd" clip-rule="evenodd" d="M33.4115 29.0645C33.7197 29.2158 34.0591 29.1563 34.1696 28.9319C34.2801 28.7075 34.1198 28.4026 33.8116 28.2514C33.5034 28.1001 33.164 28.1596 33.0535 28.384C32.943 28.6087 33.1033 28.9132 33.4115 29.0645Z" fill="black"/>
<path fill-rule="evenodd" clip-rule="evenodd" d="M35.3934 27.3345C35.1431 27.3302 34.9353 27.6047 34.9295 27.9481C34.9237 28.2915 35.1221 28.5727 35.3724 28.577C35.6226 28.5812 35.8304 28.3067 35.8362 27.9633C35.8421 27.6203 35.6436 27.3387 35.3934 27.3345Z" fill="black"/>
<path fill-rule="evenodd" clip-rule="evenodd" d="M18.5743 33.5214C18.512 33.4433 18.4097 33.467 18.3105 33.4903C18.2412 33.5067 18.163 33.5246 18.077 33.5234C17.8929 33.5199 17.7368 33.4413 17.6493 33.3068C17.5353 33.1318 17.5419 32.8708 17.6676 32.5722L17.7263 32.4384C17.9271 31.9881 18.263 31.2348 17.8859 30.5169C17.6018 29.9764 17.1387 29.64 16.5818 29.5692C16.0472 29.5015 15.4969 29.6995 15.1459 30.0864C14.5921 30.697 14.5053 31.528 14.6123 31.8216C14.6517 31.929 14.7131 31.9589 14.7575 31.9651C14.8517 31.9776 14.991 31.9091 15.0782 31.6746L15.1031 31.5984C15.142 31.4743 15.2144 31.2433 15.3331 31.0582C15.4763 30.835 15.6989 30.6814 15.9604 30.625C16.2265 30.5678 16.499 30.6188 16.727 30.7681C17.115 31.0217 17.2644 31.4969 17.0986 31.95C17.013 32.1845 16.8737 32.6328 16.9044 33.0011C16.9667 33.7466 17.4255 34.0461 17.8376 34.0779C18.2385 34.0931 18.5186 33.8679 18.5895 33.7038C18.6311 33.6066 18.5961 33.5475 18.5731 33.5222" fill="black"/>
<path fill-rule="evenodd" clip-rule="evenodd" d="M22.3867 19.8289C23.6942 18.3192 25.3034 17.0067 26.7452 16.2698C26.795 16.2441 26.8479 16.2982 26.821 16.3472C26.7066 16.5544 26.486 16.9981 26.4163 17.3345C26.4054 17.387 26.4626 17.4263 26.507 17.3964C27.404 16.7854 28.9641 16.1305 30.3327 16.0465C30.3915 16.043 30.4199 16.1181 30.3732 16.1543C30.165 16.3137 29.9374 16.5346 29.7712 16.7578C29.7428 16.7959 29.7696 16.8504 29.8171 16.8508C30.7779 16.8578 32.1326 17.1938 33.0155 17.6888C33.0751 17.7223 33.0327 17.8378 32.9657 17.8226C31.6298 17.5165 29.4431 17.2844 27.1713 17.8381C25.1434 18.3324 23.5954 19.0958 22.4664 19.9164C22.4092 19.958 22.3404 19.8821 22.3867 19.8289ZM28.8979 34.4557L28.8983 34.4564L28.8991 34.458L28.8979 34.4557ZM34.2892 35.0915C34.3282 35.0752 34.3546 35.0312 34.3503 34.9873C34.3449 34.9332 34.2966 34.8939 34.2425 34.8994C34.2425 34.8994 31.4527 35.312 28.817 34.3479C29.1042 33.4154 29.8673 33.7522 31.0211 33.8451C33.1008 33.9692 34.9648 33.6655 36.3424 33.2703C37.5359 32.9281 39.1038 32.253 40.3215 31.2925C40.732 32.1939 40.8772 33.1863 40.8772 33.1863C40.8772 33.1863 41.1951 33.1296 41.4609 33.2929C41.7119 33.4473 41.896 33.7681 41.7703 34.598C41.5142 36.1481 40.855 37.4065 39.7467 38.5643C39.0719 39.2899 38.2531 39.9207 37.3161 40.3796C36.8183 40.6409 36.2887 40.8669 35.7287 41.0492C31.5508 42.4131 27.274 40.9139 25.8956 37.6947C25.7855 37.4528 25.6925 37.1993 25.6193 36.9344C25.0321 34.8131 25.5306 32.2678 27.0896 30.6656C27.1857 30.5637 27.2837 30.4427 27.2837 30.2915C27.2837 30.1651 27.2032 30.0317 27.1335 29.9368C26.5879 29.1462 24.6986 27.7991 25.078 25.192C25.3504 23.3191 26.9895 22 28.5177 22.0782L28.9049 22.1003C29.5673 22.1396 30.1448 22.2244 30.69 22.2473C31.6025 22.287 32.4229 22.1544 33.395 21.3451C33.7226 21.0721 33.9857 20.8353 34.4305 20.7602C34.4772 20.7521 34.5936 20.7105 34.8259 20.7214C35.0633 20.7342 35.289 20.7991 35.4917 20.9341C36.2708 21.4521 36.3813 22.707 36.4218 23.6248C36.4447 24.1486 36.5082 25.4164 36.53 25.7804C36.5794 26.6126 36.7985 26.7297 37.2413 26.8755C37.4904 26.9575 37.7216 27.0186 38.0624 27.1143C39.0937 27.4036 39.7051 27.6972 40.0907 28.0744C40.3207 28.3101 40.4277 28.5605 40.4608 28.7993C40.5822 29.686 39.772 30.7811 37.6266 31.7762C35.2816 32.864 32.4365 33.1393 30.4709 32.9203L29.7821 32.8426C28.2099 32.631 27.3129 34.6614 28.2566 36.0528C28.8649 36.9496 30.5215 37.5329 32.1789 37.5333C35.9789 37.5337 38.8999 35.9121 39.9864 34.5117L40.0732 34.388C40.1269 34.3075 40.0825 34.2632 40.016 34.3087C39.1283 34.9157 35.1855 37.3256 30.9678 36.6004C30.9678 36.6004 30.4553 36.516 29.9876 36.3344C29.6159 36.1897 28.8376 35.8319 28.7431 35.0343C32.1466 36.0863 34.2892 35.0915 34.2892 35.0915ZM15.5948 27.0085C14.411 27.2383 13.3677 27.9088 12.7299 28.8351C12.3485 28.5174 11.6383 27.9021 11.5126 27.6622C10.4942 25.7294 12.624 21.972 14.1121 19.8499C17.7896 14.6057 23.5491 10.6363 26.2151 11.3566C26.6486 11.4791 28.0842 13.1423 28.0842 13.1423C28.0842 13.1423 25.4189 14.6201 22.9474 16.68C19.6171 19.2424 17.102 22.9668 15.5948 27.0085ZM17.5838 35.8771C17.4047 35.9078 17.2219 35.9198 17.0374 35.9152C15.2562 35.8673 13.3327 34.2651 13.1416 32.365C12.9303 30.2646 14.0043 28.6484 15.9057 28.265C16.133 28.2191 16.4077 28.1926 16.7039 28.2082C17.7694 28.2665 19.3392 29.084 19.6976 31.4033C20.0152 33.4574 19.5108 35.5488 17.5838 35.8771ZM41.7096 32.1577C41.6944 32.1037 41.5948 31.7409 41.4582 31.3034C41.3216 30.8655 41.1803 30.5579 41.1803 30.5579C41.7283 29.7385 41.738 29.0054 41.6648 28.5905C41.587 28.076 41.3726 27.6377 40.9406 27.1843C40.5087 26.7312 39.6249 26.2669 38.3831 25.9184L37.7317 25.7376C37.7286 25.7108 37.6974 24.2027 37.6694 23.5552C37.6488 23.0869 37.6087 22.3562 37.3818 21.6368C37.1114 20.6626 36.6405 19.8102 36.0525 19.265C37.6752 17.5842 38.6882 15.7323 38.6855 14.1441C38.6808 11.0894 34.9267 10.165 30.3001 12.0795L29.3198 12.4952C29.3155 12.491 27.5476 10.7577 27.5211 10.7344C22.2462 6.13654 5.75395 24.4558 11.0266 28.9051L12.1788 29.8808C11.88 30.6547 11.7624 31.5413 11.8586 32.4945C11.9815 33.7191 12.6135 34.8928 13.6382 35.7997C14.6106 36.6607 15.8894 37.2059 17.13 37.2047C19.182 41.9301 23.8705 44.8288 29.3676 44.9922C35.2645 45.1672 40.2145 42.4022 42.2886 37.4353C42.4244 37.0869 43 35.5162 43 34.1294C43 32.736 42.2116 32.1577 41.7096 32.1577Z" fill="black"/>
</svg>
