<svg width="54" height="54" viewBox="0 0 54 54" fill="none" xmlns="http://www.w3.org/2000/svg">
<rect width="54" height="54" rx="27" fill="#111111"/>
<path d="M19.5985 17C24.8883 17 29.197 21.469 29.197 27C29.197 32.531 24.8883 37 19.5985 37C14.3087 37 10 32.5752 10 27C10 21.4248 14.3087 17 19.5985 17ZM34.9561 17.5752C37.5583 17.5752 39.734 21.823 39.734 27C39.734 32.2212 37.601 36.4248 34.9561 36.4248C32.3112 36.4248 30.1782 32.2212 30.1782 27C30.1782 21.7788 32.3112 17.5752 34.9561 17.5752ZM42.2936 18.5487C43.2748 18.5487 44 22.354 44 27C44 31.646 43.2321 35.4513 42.2936 35.4513C41.3645 35.4513 40.6026 31.7217 40.5874 27.1391L40.5872 27C40.5872 22.354 41.3551 18.5487 42.2936 18.5487Z" fill="white"/>
</svg>
