<svg width="54" height="55" viewBox="0 0 54 55" fill="none" xmlns="http://www.w3.org/2000/svg">
<rect width="53.1253" height="54.45" rx="26.5627" fill="white"/>
<path fill-rule="evenodd" clip-rule="evenodd" d="M15.7121 16.0321C16.7902 16.9019 17.1802 16.8332 19.1989 16.6959L38.2162 15.5514C38.6291 15.5514 38.285 15.1394 38.1474 15.0936L34.9816 12.8276C34.3852 12.3698 33.5594 11.8204 32.0224 11.9578L13.6245 13.3083C12.9593 13.3769 12.8216 13.7203 13.0969 13.972L15.7121 16.0321ZM16.8591 20.4498V40.4094C16.8591 41.4852 17.3867 41.8743 18.6025 41.8056L39.5008 40.5925C40.7166 40.5238 40.8543 39.7913 40.8543 38.9216V19.0993C40.8543 18.2295 40.5102 17.7488 39.7761 17.8175L17.9372 19.0993C17.1343 19.168 16.8591 19.58 16.8591 20.4498ZM37.4821 21.5256C37.6197 22.1207 37.4821 22.7387 36.8857 22.8074L35.8763 23.0134V37.7542C35.0046 38.212 34.2017 38.4866 33.5135 38.4866C32.4353 38.4866 32.16 38.1433 31.3571 37.1362L24.7733 26.813V36.7928L26.8609 37.2506C26.8609 37.2506 26.8609 38.4638 25.1863 38.4638L20.5524 38.7384C20.4148 38.4638 20.5524 37.8 21.0112 37.6626L22.227 37.3193V24.135L20.5524 23.9976C20.4148 23.4025 20.7589 22.5327 21.6994 22.464L26.6774 22.1207L33.5364 32.5583V23.3338L31.793 23.1278C31.6553 22.3954 32.2059 21.846 32.8712 21.7773L37.4821 21.5256ZM12.0875 11.4771L31.2424 10.0808C33.5823 9.87484 34.2017 10.0122 35.6698 11.088L41.7719 15.3683C42.7812 16.1008 43.1253 16.3068 43.1253 17.1079V40.6154C43.1253 42.0803 42.5977 42.9501 40.7166 43.0874L18.4878 44.4379C17.0655 44.5066 16.4003 44.3006 15.6662 43.3621L11.147 37.5253C10.3441 36.4495 10 35.6484 10 34.7099V13.8118C10 12.5987 10.5506 11.6144 12.0875 11.4771Z" fill="black"/>
</svg>
