<svg width="135" height="48" viewBox="0 0 135 48" fill="none" xmlns="http://www.w3.org/2000/svg">
<g clip-path="url(#clip0_42_3256)">
<path d="M96.2035 20.3321C94.2175 20.3321 92.8001 21.0105 92.1044 22.2951L91.7306 22.9908V20.667H88.4989V34.7917H91.898V26.3884C91.898 24.3807 92.9892 23.2289 94.8901 23.2289C96.7029 23.2289 97.7422 24.3504 97.7422 26.3047V34.7917H101.143V25.6985C101.143 22.3355 99.2967 20.3321 96.2035 20.3321ZM79.7189 20.3321C75.7078 20.3321 73.2238 22.8349 73.2238 26.8633V28.8465C73.2238 32.7205 75.7367 35.1265 79.7824 35.1265C82.4887 35.1265 84.3853 34.1349 85.579 32.0955L83.4717 30.8831C82.5898 32.0594 81.1811 32.7883 79.7839 32.7883C77.7358 32.7883 76.5132 31.5239 76.5132 29.4051V28.8436H86.0004V26.501C86.0004 22.7483 83.5366 20.3321 79.7218 20.3321H79.7189ZM82.9073 26.5602H76.5017V26.221C76.5017 23.8958 77.6434 22.6126 79.716 22.6126C81.7122 22.6126 82.9044 23.877 82.9044 25.9958L82.9073 26.5602ZM134.9 18.3417V15.6397H123.142V18.3417H127.265V32.0839H123.142V34.7859H134.9V32.0839H130.776V18.3417H134.9ZM45.7495 15.25C40.4985 15.25 37.2337 18.5221 37.2337 23.7918V26.641C37.2337 31.9093 40.4971 35.1828 45.7495 35.1828C51.0019 35.1828 54.2653 31.9093 54.2653 26.641V23.7918C54.2639 18.5164 50.9961 15.25 45.7495 15.25ZM50.7522 26.8359C50.7522 30.3346 48.9292 32.3409 45.7495 32.3409C42.5698 32.3409 40.7482 30.3346 40.7482 26.8359V23.5955C40.7482 20.0968 42.5727 18.0906 45.7509 18.0906C48.9292 18.0906 50.7536 20.0968 50.7536 23.5955L50.7522 26.8359ZM64.9418 20.3321C63.1578 20.3321 61.6134 21.0711 60.8081 22.3081L60.4429 22.871V20.667H57.2098V39.6515H60.6103V32.7753L60.974 33.3151C61.739 34.4496 63.2329 35.1265 64.9707 35.1265C67.9022 35.1265 70.8596 33.2112 70.8596 28.9302V26.5284C70.8596 23.444 69.0366 20.3321 64.9418 20.3321ZM67.459 28.7642C67.459 31.0404 66.1312 32.4549 63.995 32.4549C62.0031 32.4549 60.6132 30.9596 60.6132 28.8205V26.6959C60.6132 24.5308 62.0147 23.0066 64.0239 23.0066C66.1441 23.0066 67.4619 24.4197 67.4619 26.6959L67.459 28.7642ZM110.539 15.6412L103.679 34.7917H107.133L108.446 30.6868H116.333L116.346 30.7272L117.645 34.7917H121.097L114.225 15.6397L110.539 15.6412ZM109.289 27.9862L112.384 18.3042L115.446 27.9862H109.289ZM30.5856 20.9874C30.9577 19.8702 31.0869 18.6863 30.9644 17.5151C30.842 16.3439 30.4707 15.2124 29.8754 14.1964C28.9918 12.6608 27.6437 11.4451 26.0253 10.7243C24.4068 10.0035 22.6014 9.81479 20.8689 10.1853C20.0874 9.30403 19.1268 8.59987 18.0512 8.11995C16.9756 7.64002 15.8099 7.39541 14.6321 7.40249C12.8601 7.39846 11.1326 7.9574 9.69881 8.9987C8.26502 10.04 7.19905 11.5098 6.65466 13.1961C5.50103 13.4328 4.41122 13.913 3.45812 14.6048C2.50503 15.2965 1.71063 16.1838 1.12804 17.2072C0.239751 18.7403 -0.139201 20.5157 0.0457313 22.2779C0.230663 24.0401 0.969942 25.6981 2.15716 27.0134C1.78642 28.1296 1.658 29.3121 1.78045 30.4819C1.90291 31.6517 2.27343 32.7819 2.86729 33.7972C3.75007 35.3358 5.09876 36.5542 6.71881 37.2767C8.33886 37.9991 10.1465 38.1883 11.8811 37.817C12.6618 38.6972 13.6213 39.4007 14.6956 39.8806C15.7698 40.3604 16.9341 40.6056 18.1106 40.5998C19.8826 40.6038 21.6101 40.0448 23.0439 39.0036C24.4777 37.9623 25.5437 36.4924 26.088 34.8061C27.2415 34.5694 28.331 34.0891 29.2839 33.3973C30.2367 32.7056 31.0309 31.8184 31.6132 30.795C32.5038 29.2624 32.8842 27.4864 32.6995 25.7235C32.5148 23.9606 31.7745 22.3021 30.5856 20.9874ZM18.1106 38.4347C16.6554 38.436 15.2461 37.925 14.1298 36.9914C14.1789 36.9639 14.2742 36.9163 14.329 36.8802L20.9396 33.064C21.1054 32.9698 21.2432 32.833 21.3385 32.6679C21.4339 32.5027 21.4836 32.3151 21.4823 32.1243V22.8031L24.2752 24.4154C24.2903 24.4225 24.3033 24.4335 24.3129 24.4471C24.3225 24.4608 24.3284 24.4767 24.33 24.4933V32.2081C24.33 33.8582 23.675 35.4409 22.5088 36.6084C21.3427 37.7759 19.7608 38.4328 18.1106 38.4347ZM4.74654 32.7277C4.01781 31.4683 3.75471 29.9929 4.00321 28.5593C4.05229 28.5896 4.13889 28.6415 4.19951 28.6762L10.8115 32.4938C10.9761 32.5903 11.1635 32.6411 11.3542 32.6411C11.545 32.6411 11.7323 32.5903 11.8969 32.4938L19.9639 27.8289V31.0534C19.9654 31.0699 19.9626 31.0866 19.9558 31.1018C19.9489 31.117 19.9383 31.1301 19.9249 31.14L13.2422 34.9966C11.8133 35.8194 10.1164 36.0418 8.52374 35.6151C6.93109 35.1883 5.5727 34.1474 4.74654 32.7205V32.7277ZM3.01451 18.2941C3.73983 17.0328 4.88595 16.0671 6.25197 15.5661V23.4238C6.25099 23.6145 6.30074 23.802 6.39611 23.9671C6.49147 24.1322 6.62902 24.269 6.79467 24.3634L14.863 29.0226L12.06 30.6406C12.0464 30.6498 12.0306 30.6554 12.0142 30.6569C11.9978 30.6584 11.9813 30.6558 11.9662 30.6492L5.28492 26.7911C3.85732 25.9652 2.8158 24.6066 2.38904 23.0135C1.96228 21.4204 2.18516 19.723 3.00874 18.2941H3.01451ZM25.9639 23.6345L17.8955 18.9753L20.6856 17.3617C20.6993 17.3526 20.715 17.3471 20.7314 17.3455C20.7477 17.344 20.7642 17.3466 20.7794 17.353L27.4607 21.2111C28.484 21.8024 29.3178 22.673 29.8643 23.7209C30.4108 24.7688 30.6475 25.9508 30.5466 27.1284C30.4458 28.3059 30.0115 29.4304 29.2948 30.3702C28.578 31.3099 27.6084 32.026 26.4994 32.4347V24.5785C26.5016 24.3873 26.4527 24.1991 26.3578 24.0331C26.2629 23.8672 26.1254 23.7296 25.9596 23.6345H25.9639ZM28.7453 19.4488C28.6962 19.4185 28.6096 19.3665 28.549 19.3319L21.9369 15.5142C21.7723 15.4178 21.585 15.3669 21.3942 15.3669C21.2035 15.3669 21.0162 15.4178 20.8515 15.5142L12.7832 20.1719V16.9489C12.7826 16.9323 12.786 16.9158 12.793 16.9007C12.8 16.8857 12.8105 16.8725 12.8236 16.8623L19.5049 13.0056C20.5286 12.4155 21.6992 12.1292 22.8798 12.1801C24.0603 12.231 25.2019 12.6171 26.171 13.2932C27.1401 13.9693 27.8966 14.9075 28.352 15.9978C28.8074 17.0882 28.9428 18.2857 28.7424 19.4502L28.7453 19.4488ZM11.2604 25.1991L8.46608 23.5869C8.45172 23.5789 8.43942 23.5678 8.43015 23.5542C8.42088 23.5407 8.4149 23.5252 8.41267 23.5089V15.7942C8.41178 14.6118 8.74796 13.4536 9.38182 12.4554C10.0157 11.4573 10.9209 10.6605 11.9915 10.1584C13.062 9.6564 14.2535 9.46995 15.4263 9.62094C16.599 9.77192 17.7044 10.2541 18.6129 11.0109C18.5638 11.0383 18.4758 11.0859 18.4137 11.122L11.8031 14.9383C11.6375 15.0327 11.4999 15.1695 11.4046 15.3346C11.3092 15.4997 11.2595 15.6872 11.2604 15.8779V25.1991ZM12.7774 21.927L16.3714 19.8515L19.9639 21.927V26.0752L16.3699 28.1508L12.7759 26.0752L12.7774 21.927Z" fill="black"/>
</g>
<defs>
<clipPath id="clip0_42_3256">
<rect width="135" height="48" fill="white"/>
</clipPath>
</defs>
</svg>
