<svg width="140" height="48" viewBox="0 0 140 48" fill="none" xmlns="http://www.w3.org/2000/svg">
<path d="M0.0419668 30.032C-0.0744522 30.3364 0.084369 30.4 0.121378 30.4528C0.470635 30.7069 0.825471 30.8897 1.18272 31.0933C3.0776 32.0989 4.86685 32.3925 6.73792 32.3925C10.5489 32.3925 12.9148 30.3654 12.9148 27.1022V27.0387C12.9148 24.0215 10.2446 22.9259 7.73827 22.1346L7.41282 22.0288C5.52315 21.4147 3.89291 20.8856 3.89291 19.6417V19.5757C3.89291 18.5117 4.84565 17.7282 6.32246 17.7282C7.96329 17.7282 9.91118 18.2735 11.1656 18.9668C11.1656 18.9668 11.5334 19.205 11.6684 18.8478C11.7424 18.6571 12.3777 16.9475 12.4439 16.7623C12.5154 16.561 12.3883 16.4128 12.2587 16.3334C10.8269 15.4627 8.84723 14.8672 6.79892 14.8672L6.41786 14.8698C2.92975 14.8698 0.494998 16.9765 0.494998 19.9961V20.0597C0.494998 23.2434 3.18119 24.2756 5.69815 24.9955L6.10301 25.1199C7.93707 25.6836 9.5171 26.1678 9.5171 27.4594V27.523C9.5171 28.7034 8.49034 29.5819 6.83351 29.5819C6.19042 29.5819 4.13932 29.5687 1.9242 28.1685C1.65677 28.0123 1.50074 27.8987 1.29431 27.7743C1.18588 27.7055 0.913249 27.5862 0.794227 27.9463L0.0419668 30.032ZM55.8335 30.032C55.717 30.3364 55.8759 30.4 55.9129 30.4528C56.2621 30.7069 56.617 30.8897 56.974 31.0933C58.8689 32.0989 60.6583 32.3925 62.5292 32.3925C66.3402 32.3925 68.7063 30.3654 68.7063 27.1022V27.0387C68.7063 24.0215 66.0359 22.9259 63.5296 22.1346L63.2041 22.0288C61.3144 21.4147 59.684 20.8856 59.684 19.6417V19.5757C59.684 18.5117 60.6368 17.7282 62.1136 17.7282C63.7544 17.7282 65.7023 18.2735 66.9569 18.9668C66.9569 18.9668 67.3247 19.205 67.4595 18.8478C67.5336 18.6571 68.1688 16.9475 68.2351 16.7623C68.3067 16.561 68.1794 16.4128 68.0498 16.3334C66.618 15.4627 64.6383 14.8672 62.59 14.8672L62.2088 14.8698C58.7207 14.8698 56.2859 16.9765 56.2859 19.9961V20.0597C56.2859 23.2434 58.9721 24.2756 61.4891 24.9955L61.8939 25.1199C63.728 25.6836 65.3108 26.1678 65.3108 27.4594V27.523C65.3108 28.7034 64.2813 29.5819 62.6244 29.5819C61.9815 29.5819 59.9304 29.5687 57.7153 28.1685C57.4479 28.0123 57.2892 27.9039 57.0882 27.7743C57.0192 27.7293 56.6964 27.6048 56.5852 27.9463L55.8335 30.032ZM93.9209 23.6401C93.9209 25.4847 93.5768 26.9376 92.8993 27.9645C92.2296 28.9809 91.2161 29.4757 89.8031 29.4757C88.3873 29.4757 87.3789 28.9835 86.7198 27.9645C86.0527 26.9404 85.7143 25.4847 85.7143 23.6401C85.7143 21.7982 86.0527 20.3478 86.7198 19.3315C87.3789 18.3259 88.3873 17.8362 89.8031 17.8362C91.2163 17.8362 92.2298 18.3259 92.9021 19.3315C93.577 20.3476 93.9209 21.798 93.9209 23.6401ZM97.1021 20.2208C96.7897 19.1647 96.3028 18.2331 95.6545 17.4578C95.006 16.6797 94.1857 16.0552 93.2116 15.5999C92.2402 15.1474 91.0919 14.9172 89.8031 14.9172C88.5115 14.9172 87.3629 15.1474 86.3916 15.5999C85.4176 16.0552 84.5973 16.6799 83.9462 17.4578C83.3005 18.2359 82.8135 19.1674 82.4986 20.2208C82.189 21.2714 82.0327 22.4199 82.0327 23.6401C82.0327 24.8603 82.189 26.0114 82.4986 27.0594C82.8135 28.1127 83.2979 29.0445 83.949 29.8224C84.5973 30.6005 85.4204 31.2224 86.3918 31.6643C87.3655 32.1063 88.5115 32.3312 89.8033 32.3312C91.092 32.3312 92.238 32.1063 93.2118 31.6643C94.1831 31.2224 95.006 30.6003 95.6547 29.8224C96.303 29.0469 96.7899 28.1153 97.1023 27.0594C97.4147 26.0088 97.5708 24.8575 97.5708 23.6401C97.5708 22.4227 97.4144 21.2714 97.1021 20.2208ZM123.225 28.9831C123.119 28.6734 122.82 28.7899 122.82 28.7899C122.357 28.9673 121.865 29.1313 121.341 29.2133C120.809 29.2951 120.224 29.3377 119.597 29.3377C118.057 29.3377 116.834 28.8799 115.958 27.9747C115.079 27.0696 114.587 25.6062 114.592 23.6265C114.598 21.8242 115.031 20.4691 115.812 19.4371C116.588 18.4103 117.768 17.8835 119.343 17.8835C120.656 17.8835 121.656 18.0343 122.704 18.3652C122.704 18.3652 122.955 18.4736 123.074 18.1455C123.352 17.3726 123.558 16.8195 123.855 15.97C123.94 15.7292 123.733 15.626 123.659 15.5968C123.246 15.4353 122.272 15.1735 121.537 15.0623C120.848 14.9565 120.044 14.9008 119.149 14.9008C117.813 14.9008 116.622 15.1285 115.603 15.5837C114.587 16.0362 113.724 16.6607 113.041 17.439C112.358 18.2171 111.84 19.1485 111.493 20.2018C111.149 21.2524 110.974 22.4063 110.974 23.6265C110.974 26.2651 111.686 28.398 113.092 29.9596C114.5 31.5265 116.614 32.323 119.372 32.323C121.002 32.323 122.675 31.9923 123.876 31.5185C123.876 31.5185 124.107 31.4072 124.006 31.1402L123.225 28.9831ZM128.791 21.873C128.942 20.8488 129.225 19.9965 129.662 19.3324C130.321 18.3241 131.327 17.771 132.74 17.771C134.153 17.771 135.087 18.3267 135.757 19.3324C136.202 19.9965 136.395 20.886 136.472 21.873H128.791ZM139.502 19.6207C139.232 18.6017 138.562 17.5722 138.123 17.1011C137.429 16.3548 136.752 15.8335 136.08 15.5423C135.201 15.1664 134.148 14.9178 132.994 14.9178C131.65 14.9178 130.429 15.1428 129.44 15.6085C128.447 16.0743 127.614 16.7096 126.96 17.5009C126.306 18.2895 125.814 19.229 125.501 20.2956C125.187 21.3569 125.028 22.5135 125.028 23.7333C125.028 24.9746 125.192 26.1312 125.517 27.1712C125.846 28.2193 126.37 29.1428 127.079 29.9076C127.785 30.6779 128.696 31.2813 129.786 31.7018C130.869 32.1201 132.184 32.3371 133.695 32.3343C136.805 32.3237 138.443 31.6304 139.118 31.2572C139.237 31.1911 139.351 31.0747 139.208 30.7413L138.504 28.7694C138.398 28.4758 138.099 28.5842 138.099 28.5842C137.329 28.87 136.233 29.3835 133.679 29.3783C132.009 29.3757 130.771 28.8834 129.995 28.1131C129.199 27.3246 128.81 26.1652 128.741 24.5298L139.51 24.5404C139.51 24.5404 139.793 24.5352 139.822 24.2597C139.833 24.1437 140.193 22.0476 139.502 19.6207ZM42.549 21.873C42.7025 20.8488 42.9831 19.9965 43.4198 19.3324C44.0787 18.3241 45.0844 17.771 46.4976 17.771C47.9108 17.771 48.8451 18.3267 49.5173 19.3324C49.9591 19.9965 50.1524 20.886 50.2292 21.873H42.549ZM53.2568 19.6207C52.9869 18.6017 52.3201 17.5722 51.8808 17.1011C51.1873 16.3548 50.5098 15.8335 49.8377 15.5423C48.959 15.1664 47.9058 14.9178 46.7518 14.9178C45.41 14.9178 44.1873 15.1428 43.1975 15.6085C42.2052 16.0743 41.3715 16.7096 40.7178 17.5009C40.0641 18.2895 39.5718 19.229 39.2596 20.2956C38.9473 21.3569 38.7859 22.5135 38.7859 23.7333C38.7859 24.9746 38.9499 26.1312 39.2755 27.1712C39.6038 28.2193 40.1279 29.1428 40.837 29.9076C41.5437 30.6779 42.454 31.2813 43.5444 31.7018C44.6269 32.1201 45.9421 32.3371 47.4533 32.3343C50.563 32.3237 52.2012 31.6304 52.8761 31.2572C52.9953 31.1911 53.1089 31.0747 52.9661 30.7413L52.2648 28.7694C52.1562 28.4758 51.8574 28.5842 51.8574 28.5842C51.0872 28.87 49.9941 29.3835 47.4349 29.3783C45.7677 29.3757 44.5291 28.8834 43.7536 28.1131C42.9569 27.3246 42.568 26.1652 42.499 24.5298L53.2678 24.5404C53.2678 24.5404 53.5508 24.5352 53.58 24.2597C53.5902 24.1437 53.9501 22.0476 53.2568 19.6207ZM19.2725 28.9241C18.8516 28.5879 18.7934 28.5033 18.6506 28.2862C18.4388 27.9554 18.3304 27.4843 18.3304 26.8862C18.3304 25.9387 18.6426 25.2586 19.2911 24.8007C19.2833 24.8035 20.2174 23.9936 22.4139 24.0226C23.9568 24.0438 25.3356 24.2715 25.3356 24.2715V29.1676H25.3382C25.3382 29.1676 23.97 29.4612 22.4298 29.5538C20.2384 29.6862 19.2645 28.9215 19.2725 28.9241ZM23.5571 21.3576C23.1205 21.3258 22.554 21.3072 21.8765 21.3072C20.9529 21.3072 20.061 21.4237 19.2247 21.6487C18.3832 21.8735 17.6263 22.2258 16.9752 22.6913C16.3251 23.1553 15.7907 23.763 15.4137 24.4671C15.0327 25.1764 14.8395 26.0127 14.8395 26.9497C14.8395 27.9024 15.0035 28.7307 15.3317 29.4084C15.66 30.0885 16.1336 30.6548 16.7369 31.0916C17.335 31.5283 18.0735 31.8484 18.9309 32.0416C19.7752 32.2348 20.7331 32.3326 21.7813 32.3326C22.8848 32.3326 23.9858 32.2428 25.0523 32.06C26.1083 31.88 27.4051 31.6179 27.7649 31.5361C28.0173 31.4753 28.2687 31.4109 28.5192 31.3429C28.7867 31.2769 28.7655 30.9908 28.7655 30.9908L28.7601 21.1432C28.7601 18.9835 28.1832 17.3823 27.0478 16.3899C25.9177 15.4002 24.253 14.8997 22.1015 14.8997C21.2942 14.8997 19.9948 15.0111 19.2167 15.1672C19.2167 15.1672 16.864 15.6224 15.8952 16.3793C15.8952 16.3793 15.6836 16.5117 15.8 16.8082L16.5623 18.8567C16.6575 19.1213 16.9144 19.0313 16.9144 19.0313C16.9144 19.0313 16.9964 18.9995 17.0918 18.9439C19.1641 17.8165 21.7841 17.8509 21.7841 17.8509C22.9486 17.8509 23.8431 18.0838 24.4464 18.5468C25.0339 18.9967 25.333 19.6768 25.333 21.1112V21.5665C24.4066 21.4343 23.5571 21.3576 23.5571 21.3576ZM110.412 15.809C110.494 15.5653 110.322 15.4489 110.25 15.4225C110.068 15.3511 109.152 15.1579 108.445 15.1129C107.093 15.0308 106.342 15.2585 105.669 15.5601C105.002 15.8618 104.261 16.3486 103.848 16.9019V15.5919C103.848 15.4093 103.719 15.2637 103.539 15.2637H100.778C100.598 15.2637 100.469 15.4091 100.469 15.5919V31.6537C100.469 31.8337 100.617 31.9819 100.797 31.9819H103.626C103.713 31.9814 103.796 31.9466 103.857 31.885C103.918 31.8235 103.952 31.7403 103.952 31.6537V23.6295C103.952 22.5523 104.071 21.478 104.309 20.8031C104.542 20.136 104.859 19.6015 105.251 19.2177C105.645 18.8366 106.093 18.5694 106.582 18.4185C107.082 18.2649 107.635 18.2147 108.027 18.2147C108.591 18.2147 109.21 18.3601 109.21 18.3601C109.417 18.3839 109.533 18.2569 109.602 18.0691C109.787 17.5768 110.311 16.1026 110.412 15.809Z" fill="black"/>
<path d="M83.8552 8.36525C83.5111 8.25943 83.1989 8.18783 82.7912 8.11121C82.3782 8.03719 81.8861 8 81.3278 8C79.3797 8 77.8447 8.55048 76.7677 9.63544C75.6958 10.7154 74.9679 12.3588 74.6026 14.5211L74.4702 15.2488H72.025C72.025 15.2488 71.7286 15.2382 71.665 15.5613L71.2655 17.8028C71.2363 18.0146 71.3291 18.1495 71.6148 18.1495H73.9941L71.5804 31.6256C71.3924 32.7108 71.1753 33.6027 70.9345 34.28C70.6989 34.9471 70.4688 35.4472 70.183 35.8124C69.9077 36.1619 69.6483 36.4211 69.1983 36.5719C68.8278 36.6964 68.3991 36.7546 67.9307 36.7546C67.6712 36.7546 67.3248 36.712 67.0679 36.6592C66.8139 36.6088 66.6789 36.5533 66.4857 36.4711C66.4857 36.4711 66.2078 36.3655 66.0966 36.6433C66.0092 36.8736 65.3741 38.6175 65.2973 38.8321C65.2233 39.0463 65.3291 39.2131 65.4639 39.2633C65.7816 39.3745 66.017 39.4486 66.4485 39.5518C67.0467 39.6922 67.552 39.7 68.0257 39.7C69.0154 39.7 69.9206 39.5598 70.6697 39.2899C71.4214 39.0173 72.0775 38.5434 72.6598 37.9031C73.2871 37.2096 73.6813 36.4845 74.0574 35.4922C74.4304 34.5128 74.7508 33.2955 75.0047 31.8771L77.4316 18.1495H80.978C80.978 18.1495 81.2768 18.1601 81.338 17.8346L81.7401 15.5957C81.7667 15.3814 81.6767 15.249 81.388 15.249H77.9449C77.9635 15.1724 78.1196 13.9601 78.514 12.8197C78.6834 12.3354 79.0009 11.9409 79.2683 11.6709C79.5331 11.4063 79.8374 11.2184 80.171 11.1098C80.5123 10.9986 80.9015 10.9458 81.3276 10.9458C81.6504 10.9458 81.9705 10.9828 82.2113 11.033C82.5448 11.1046 82.6744 11.1416 82.762 11.1682C83.114 11.274 83.1615 11.1708 83.2305 11.0016L84.0536 8.74147C84.1382 8.49748 83.9292 8.39426 83.8552 8.36525ZM35.7477 31.6548C35.7477 31.8348 35.6181 31.9805 35.438 31.9805H32.5824C32.4024 31.9805 32.2754 31.8348 32.2754 31.6548V8.67229C32.2754 8.49245 32.4024 8.34684 32.5824 8.34684H35.438C35.6181 8.34684 35.7477 8.49245 35.7477 8.67229V31.6548Z" fill="black"/>
</svg>
