<svg width="100" height="38" viewBox="0 0 100 38" fill="none" xmlns="http://www.w3.org/2000/svg">
<g clip-path="url(#clip0_42_3405)">
<path d="M21.3784 9.40719C21.3585 9.2671 21.2391 9.18704 21.1395 9.18704C21.04 9.18704 19.0694 9.14702 19.0694 9.14702C19.0694 9.14702 17.4172 7.54596 17.258 7.36584C17.0987 7.20573 16.7803 7.24576 16.6608 7.28579C16.6608 7.28579 16.3423 7.38585 15.8248 7.54596C15.7452 7.26577 15.6058 6.92555 15.4267 6.56531C14.8494 5.44457 13.9736 4.84417 12.9385 4.84417C12.8589 4.84417 12.7992 4.84417 12.7196 4.86419C12.6797 4.82416 12.6598 4.78413 12.62 4.76412C12.1622 4.2838 11.585 4.04364 10.8883 4.06366C9.5546 4.10368 8.22094 5.08433 7.12614 6.80547C6.36973 8.02628 5.79248 9.54728 5.61333 10.7281C4.08061 11.2084 3.00572 11.5486 2.96591 11.5486C2.1896 11.7888 2.16969 11.8088 2.07016 12.5493C2.03035 13.1096 0 28.9001 0 28.9001L17.039 31.862L24.4239 30.0208C24.404 30.0208 21.3983 9.54728 21.3784 9.40719ZM14.9689 7.82614C14.5708 7.94622 14.1328 8.08632 13.6551 8.24642C13.6551 7.56597 13.5556 6.60534 13.257 5.80481C14.2722 5.96491 14.7698 7.12568 14.9689 7.82614ZM12.7594 8.50659C11.8636 8.78678 10.8883 9.08698 9.9129 9.38718C10.1916 8.32648 10.7091 7.28579 11.3461 6.58532C11.5849 6.32515 11.9233 6.04497 12.3015 5.88486C12.6997 6.66538 12.7793 7.7661 12.7594 8.50659ZM10.9281 4.96425C11.2466 4.96425 11.5053 5.02429 11.7243 5.1844C11.366 5.36452 11.0077 5.6447 10.6892 6.00494C9.83327 6.92555 9.17639 8.34649 8.91762 9.7274C8.1015 9.98757 7.30529 10.2277 6.58869 10.4479C7.06642 8.26644 8.87781 5.02429 10.9281 4.96425Z" fill="black"/>
<path d="M21.1396 9.18885C21.0401 9.18885 19.0694 9.14882 19.0694 9.14882C19.0694 9.14882 17.4173 7.54776 17.258 7.36764C17.1983 7.3076 17.1187 7.26758 17.0391 7.26758V31.8638L24.424 30.0226C24.424 30.0226 21.4183 9.54909 21.3983 9.40899C21.3585 9.2689 21.2391 9.18885 21.1396 9.18885Z" fill="black"/>
<path d="M12.9387 13.0099L12.0827 16.232C12.0827 16.232 11.1273 15.7917 9.99266 15.8717C8.3206 15.9718 8.3206 17.0325 8.3206 17.2927C8.42013 18.7336 12.1823 19.0538 12.4012 22.4361C12.5605 25.0978 11.0078 26.919 8.73862 27.0591C6.03148 27.1992 4.53857 25.5982 4.53857 25.5982L5.11583 23.1365C5.11583 23.1365 6.62864 24.2773 7.82297 24.1972C8.59928 24.1572 8.89786 23.4968 8.85805 23.0565C8.73862 21.1753 5.67318 21.2953 5.47413 18.1933C5.31489 15.5916 7.00685 12.9698 10.7491 12.7297C12.2022 12.6296 12.9387 13.0099 12.9387 13.0099Z" fill="white"/>
<path d="M34.4166 19.8755C33.5607 19.4152 33.1228 19.0149 33.1228 18.4745C33.1228 17.7941 33.7398 17.3538 34.6953 17.3538C35.81 17.3538 36.8053 17.8141 36.8053 17.8141L37.5816 15.4125C37.5816 15.4125 36.865 14.8521 34.755 14.8521C31.809 14.8521 29.7588 16.5533 29.7588 18.9348C29.7588 20.2957 30.7142 21.3164 31.9882 22.0569C33.0232 22.6373 33.3815 23.0576 33.3815 23.678C33.3815 24.3184 32.864 24.8387 31.9085 24.8387C30.4953 24.8387 29.1417 24.0983 29.1417 24.0983L28.3057 26.4998C28.3057 26.4998 29.5398 27.3404 31.6299 27.3404C34.6555 27.3404 36.8451 25.8394 36.8451 23.1376C36.8252 21.6767 35.7304 20.636 34.4166 19.8755Z" fill="black"/>
<path d="M46.4794 14.8123C44.9865 14.8123 43.812 15.5328 42.9163 16.6135L42.8765 16.5935L44.1703 9.78897H40.8063L37.5219 27.1204H40.8859L42.0007 21.1965C42.4386 18.955 43.5931 17.5741 44.668 17.5741C45.4244 17.5741 45.723 18.0945 45.723 18.835C45.723 19.2953 45.6832 19.8756 45.5836 20.3359L44.3097 27.1204H47.6737L48.9875 20.1158C49.1268 19.3753 49.2263 18.4947 49.2263 17.8943C49.2462 15.9731 48.251 14.8123 46.4794 14.8123Z" fill="black"/>
<path d="M56.8697 14.812C52.809 14.812 50.1218 18.4944 50.1218 22.5971C50.1218 25.2189 51.7341 27.3403 54.7597 27.3403C58.7408 27.3403 61.4281 23.7579 61.4281 19.5551C61.448 17.1335 60.0347 14.812 56.8697 14.812ZM55.2176 24.7586C54.063 24.7586 53.5853 23.7779 53.5853 22.5371C53.5853 20.5958 54.5806 17.4337 56.4119 17.4337C57.6062 17.4337 58.0043 18.4744 58.0043 19.4751C58.0043 21.5565 56.9891 24.7586 55.2176 24.7586Z" fill="black"/>
<path d="M70.0675 14.812C67.7982 14.812 66.5044 16.8333 66.5044 16.8333H66.4646L66.6636 15.0121H63.6778C63.5385 16.2329 63.2598 18.1142 63.001 19.5151L60.6522 31.9233H64.0162L64.9518 26.9H65.0314C65.0314 26.9 65.7281 27.3403 67.002 27.3403C70.9632 27.3403 73.5509 23.2576 73.5509 19.1349C73.5509 16.8533 72.5357 14.812 70.0675 14.812ZM66.8428 24.7986C65.9669 24.7986 65.4494 24.2983 65.4494 24.2983L66.0067 21.1362C66.4049 19.0148 67.4997 17.6139 68.6741 17.6139C69.7092 17.6139 70.0276 18.5745 70.0276 19.4751C70.0276 21.6765 68.7338 24.7986 66.8428 24.7986Z" fill="black"/>
<path d="M78.3674 9.94901C77.2925 9.94901 76.4366 10.8096 76.4366 11.9103C76.4366 12.911 77.0736 13.6114 78.029 13.6114H78.0688C79.1238 13.6114 80.0196 12.891 80.0395 11.6501C80.0395 10.6695 79.3826 9.94901 78.3674 9.94901Z" fill="black"/>
<path d="M73.6501 27.1002H77.0141L79.3032 15.0923H75.9193L73.6501 27.1002Z" fill="black"/>
<path d="M87.8822 15.0725H85.5334L85.6528 14.5121C85.8519 13.3513 86.5287 12.3307 87.6633 12.3307C88.2604 12.3307 88.7382 12.5108 88.7382 12.5108L89.395 9.84903C89.395 9.84903 88.8178 9.54883 87.5637 9.54883C86.3694 9.54883 85.1751 9.88905 84.2594 10.6696C83.1049 11.6502 82.5675 13.0712 82.3087 14.5121L82.2092 15.0725H80.6367L80.139 17.6342H81.7115L79.9201 27.1204H83.2841L85.0756 17.6342H87.4045L87.8822 15.0725Z" fill="black"/>
<path d="M96.0035 15.0923C96.0035 15.0923 93.8935 20.4358 92.9579 23.3578H92.9181C92.8584 22.4171 92.0821 15.0923 92.0821 15.0923H88.5389L90.5693 26.1196C90.6091 26.3597 90.5892 26.5199 90.4897 26.68C90.0916 27.4405 89.4347 28.1809 88.6584 28.7213C88.0214 29.1816 87.3048 29.4818 86.7474 29.6819L87.683 32.5638C88.3598 32.4238 89.793 31.8434 90.9873 30.7226C92.52 29.2817 93.9532 27.0402 95.4063 23.9982L99.5267 15.0923H96.0035Z" fill="black"/>
</g>
<defs>
<clipPath id="clip0_42_3405">
<rect width="100" height="38" fill="white"/>
</clipPath>
</defs>
</svg>
