<svg width="80" height="48" viewBox="0 0 80 48" fill="none" xmlns="http://www.w3.org/2000/svg">
<path fill-rule="evenodd" clip-rule="evenodd" d="M79.3058 25.8164C79.3058 20.1769 76.5741 15.727 71.3532 15.727C66.1102 15.727 62.938 20.1769 62.938 25.7723C62.938 32.4032 66.6829 35.7516 72.0581 35.7516C74.6796 35.7516 76.6622 35.1568 78.1602 34.3197V29.9139C76.6622 30.6629 74.9439 31.1255 72.763 31.1255C70.6262 31.1255 68.7317 30.3765 68.4893 27.777H79.2617C79.2617 27.4906 79.3058 26.3451 79.3058 25.8164ZM68.4233 23.7236C68.4233 21.2343 69.9433 20.1989 71.3311 20.1989C72.6749 20.1989 74.1068 21.2343 74.1068 23.7236H68.4233Z" fill="black"/>
<path fill-rule="evenodd" clip-rule="evenodd" d="M54.4345 15.7269C52.2756 15.7269 50.8877 16.7403 50.1167 17.4452L49.8303 16.0794H44.9839V41.7656L50.4912 40.5981L50.5132 34.3638C51.3063 34.9365 52.4738 35.7516 54.4124 35.7516C58.3557 35.7516 61.9465 32.5794 61.9465 25.5961C61.9244 19.2076 58.2896 15.7269 54.4345 15.7269ZM53.1127 30.9052C51.813 30.9052 51.0419 30.4425 50.5132 29.8698L50.4912 21.6969C51.064 21.058 51.857 20.6175 53.1127 20.6175C55.1174 20.6175 56.5052 22.8645 56.5052 25.7503C56.5052 28.7022 55.1394 30.9052 53.1127 30.9052Z" fill="black"/>
<path fill-rule="evenodd" clip-rule="evenodd" d="M37.4057 14.4272L42.935 13.2376V8.76562L37.4057 9.93318V14.4272Z" fill="black"/>
<path d="M42.935 16.1014H37.4057V35.3771H42.935V16.1014Z" fill="black"/>
<path fill-rule="evenodd" clip-rule="evenodd" d="M31.4795 17.7316L31.1271 16.1014H26.3687V35.3771H31.8761V22.3137C33.1758 20.6174 35.3787 20.9258 36.0617 21.1682V16.1014C35.3567 15.8371 32.7793 15.3524 31.4795 17.7316Z" fill="black"/>
<path fill-rule="evenodd" clip-rule="evenodd" d="M20.465 11.321L15.0899 12.4665L15.0679 30.112C15.0679 33.3724 17.5131 35.7736 20.7735 35.7736C22.5799 35.7736 23.9016 35.4431 24.6286 35.0466V30.5746C23.9237 30.861 20.443 31.8744 20.443 28.614V20.7936H24.6286V16.1014H20.443L20.465 11.321Z" fill="black"/>
<path fill-rule="evenodd" clip-rule="evenodd" d="M5.57342 21.6969C5.57342 20.8378 6.27836 20.5073 7.44592 20.5073C9.12015 20.5073 11.235 21.014 12.9092 21.9172V16.7403C11.0808 16.0133 9.27435 15.727 7.44592 15.727C2.97396 15.727 0 18.0621 0 21.9613C0 28.0414 8.37115 27.0721 8.37115 29.6936C8.37115 30.7069 7.48998 31.0374 6.25633 31.0374C4.4279 31.0374 2.09279 30.2884 0.242322 29.275V34.518C2.29105 35.3992 4.36181 35.7737 6.25633 35.7737C10.8384 35.7737 13.9886 33.5046 13.9886 29.5614C13.9666 22.9966 5.57342 24.1642 5.57342 21.6969Z" fill="black"/>
</svg>
